<?xml version="1.0" encoding="UTF-8" standalone="no"?>
<!DOCTYPE svg PUBLIC "-//W3C//DTD SVG 1.1//EN"
 "http://www.w3.org/Graphics/SVG/1.1/DTD/svg11.dtd">
<!-- Generated by graphviz version 7.0.5 (20221231.0122)
 -->
<!-- Title: snakemake_dag Pages: 1 -->
<svg width="1696pt" height="1916pt"
 viewBox="0.00 0.00 1696.40 1916.00" xmlns="http://www.w3.org/2000/svg" xmlns:xlink="http://www.w3.org/1999/xlink">
<g id="graph0" class="graph" transform="scale(1 1) rotate(0) translate(4 1912)">
<title>snakemake_dag</title>
<polygon fill="white" stroke="none" points="-4,4 -4,-1912 1692.4,-1912 1692.4,4 -4,4"/>
<!-- 0 -->
<g id="node1" class="node">
<title>0</title>
<path fill="none" stroke="#56b9d8" stroke-width="2" d="M1073,-36C1073,-36 1043,-36 1043,-36 1037,-36 1031,-30 1031,-24 1031,-24 1031,-12 1031,-12 1031,-6 1037,0 1043,0 1043,0 1073,0 1073,0 1079,0 1085,-6 1085,-12 1085,-12 1085,-24 1085,-24 1085,-30 1079,-36 1073,-36"/>
<text text-anchor="middle" x="1058" y="-15.5" font-family="sans" font-size="10.00">all</text>
</g>
<!-- 1 -->
<g id="node2" class="node">
<title>1</title>
<path fill="none" stroke="#56d8a2" stroke-width="2" d="M1089,-108C1089,-108 1027,-108 1027,-108 1021,-108 1015,-102 1015,-96 1015,-96 1015,-84 1015,-84 1015,-78 1021,-72 1027,-72 1027,-72 1089,-72 1089,-72 1095,-72 1101,-78 1101,-84 1101,-84 1101,-96 1101,-96 1101,-102 1095,-108 1089,-108"/>
<text text-anchor="middle" x="1058" y="-87.5" font-family="sans" font-size="10.00">updated_stats</text>
</g>
<!-- 1&#45;&gt;0 -->
<g id="edge1" class="edge">
<title>1&#45;&gt;0</title>
<path fill="none" stroke="grey" stroke-width="2" d="M1058,-71.34C1058,-64.75 1058,-57.08 1058,-49.67"/>
<polygon fill="grey" stroke="grey" stroke-width="2" points="1061.5,-49.93 1058,-39.93 1054.5,-49.93 1061.5,-49.93"/>
</g>
<!-- 2 -->
<g id="node3" class="node">
<title>2</title>
<path fill="none" stroke="#56a2d8" stroke-width="2" d="M1150.5,-180C1150.5,-180 965.5,-180 965.5,-180 959.5,-180 953.5,-174 953.5,-168 953.5,-168 953.5,-156 953.5,-156 953.5,-150 959.5,-144 965.5,-144 965.5,-144 1150.5,-144 1150.5,-144 1156.5,-144 1162.5,-150 1162.5,-156 1162.5,-156 1162.5,-168 1162.5,-168 1162.5,-174 1156.5,-180 1150.5,-180"/>
<text text-anchor="middle" x="1058" y="-159.5" font-family="sans" font-size="10.00">add_additional_seqs_to_original_numts</text>
</g>
<!-- 2&#45;&gt;1 -->
<g id="edge2" class="edge">
<title>2&#45;&gt;1</title>
<path fill="none" stroke="grey" stroke-width="2" d="M1058,-143.34C1058,-136.75 1058,-129.08 1058,-121.67"/>
<polygon fill="grey" stroke="grey" stroke-width="2" points="1061.5,-121.93 1058,-111.93 1054.5,-121.93 1061.5,-121.93"/>
</g>
<!-- 3 -->
<g id="node4" class="node">
<title>3</title>
<path fill="none" stroke="#59d856" stroke-width="2" d="M492,-1476C492,-1476 290,-1476 290,-1476 284,-1476 278,-1470 278,-1464 278,-1464 278,-1452 278,-1452 278,-1446 284,-1440 290,-1440 290,-1440 492,-1440 492,-1440 498,-1440 504,-1446 504,-1452 504,-1452 504,-1464 504,-1464 504,-1470 498,-1476 492,-1476"/>
<text text-anchor="middle" x="391" y="-1455.5" font-family="sans" font-size="10.00">get_mtc_scaffolds_from_assembly_reports</text>
</g>
<!-- 3&#45;&gt;2 -->
<g id="edge3" class="edge">
<title>3&#45;&gt;2</title>
<path fill="none" stroke="grey" stroke-width="2" d="M280.52,-1439.01C164.9,-1416.98 0,-1375.03 0,-1315 0,-1315 0,-1315 0,-305 0,-237.88 58.8,-238.6 122,-216 197.02,-189.17 704.82,-172.38 939.5,-165.96"/>
<polygon fill="grey" stroke="grey" stroke-width="2" points="939.59,-169.46 949.49,-165.69 939.4,-162.47 939.59,-169.46"/>
</g>
<!-- 11 -->
<g id="node12" class="node">
<title>11</title>
<path fill="none" stroke="#568ad8" stroke-width="2" d="M778,-1404C778,-1404 458,-1404 458,-1404 452,-1404 446,-1398 446,-1392 446,-1392 446,-1380 446,-1380 446,-1374 452,-1368 458,-1368 458,-1368 778,-1368 778,-1368 784,-1368 790,-1374 790,-1380 790,-1380 790,-1392 790,-1392 790,-1398 784,-1404 778,-1404"/>
<text text-anchor="middle" x="618" y="-1383.5" font-family="sans" font-size="10.00">drop_duplicates_and_define_regions_and_names_assembly_numts</text>
</g>
<!-- 3&#45;&gt;11 -->
<g id="edge24" class="edge">
<title>3&#45;&gt;11</title>
<path fill="none" stroke="grey" stroke-width="2" d="M449.16,-1439.06C479.2,-1429.8 516.08,-1418.43 547.7,-1408.68"/>
<polygon fill="grey" stroke="grey" stroke-width="2" points="548.57,-1412.07 557.1,-1405.78 546.51,-1405.38 548.57,-1412.07"/>
</g>
<!-- 4 -->
<g id="node5" class="node">
<title>4</title>
<path fill="none" stroke="#56d88a" stroke-width="2" d="M1378.5,-324C1378.5,-324 1205.5,-324 1205.5,-324 1199.5,-324 1193.5,-318 1193.5,-312 1193.5,-312 1193.5,-300 1193.5,-300 1193.5,-294 1199.5,-288 1205.5,-288 1205.5,-288 1378.5,-288 1378.5,-288 1384.5,-288 1390.5,-294 1390.5,-300 1390.5,-300 1390.5,-312 1390.5,-312 1390.5,-318 1384.5,-324 1378.5,-324"/>
<text text-anchor="middle" x="1292" y="-303.5" font-family="sans" font-size="10.00">align_mtc_to_additional_seqs_lastdb</text>
</g>
<!-- 4&#45;&gt;2 -->
<g id="edge5" class="edge">
<title>4&#45;&gt;2</title>
<path fill="none" stroke="grey" stroke-width="2" d="M1293.37,-287.08C1293.85,-267.05 1291.36,-234.95 1273,-216 1258.57,-201.11 1218.14,-189.36 1176.18,-180.75"/>
<polygon fill="grey" stroke="grey" stroke-width="2" points="1176.89,-177.32 1166.4,-178.82 1175.54,-184.19 1176.89,-177.32"/>
</g>
<!-- 38 -->
<g id="node39" class="node">
<title>38</title>
<path fill="none" stroke="#afd856" stroke-width="2" d="M1252,-252C1252,-252 1098,-252 1098,-252 1092,-252 1086,-246 1086,-240 1086,-240 1086,-228 1086,-228 1086,-222 1092,-216 1098,-216 1098,-216 1252,-216 1252,-216 1258,-216 1264,-222 1264,-228 1264,-228 1264,-240 1264,-240 1264,-246 1258,-252 1252,-252"/>
<text text-anchor="middle" x="1175" y="-231.5" font-family="sans" font-size="10.00">additional_seqs_maf_to_blasttab</text>
</g>
<!-- 4&#45;&gt;38 -->
<g id="edge70" class="edge">
<title>4&#45;&gt;38</title>
<path fill="none" stroke="grey" stroke-width="2" d="M1262.17,-287.15C1248.01,-278.68 1230.86,-268.42 1215.54,-259.25"/>
<polygon fill="grey" stroke="grey" stroke-width="2" points="1217.75,-256.5 1207.37,-254.37 1214.15,-262.5 1217.75,-256.5"/>
</g>
<!-- 5 -->
<g id="node6" class="node">
<title>5</title>
<path fill="none" stroke="#d8d356" stroke-width="2" d="M1288,-396C1288,-396 1208,-396 1208,-396 1202,-396 1196,-390 1196,-384 1196,-384 1196,-372 1196,-372 1196,-366 1202,-360 1208,-360 1208,-360 1288,-360 1288,-360 1294,-360 1300,-366 1300,-372 1300,-372 1300,-384 1300,-384 1300,-390 1294,-396 1288,-396"/>
<text text-anchor="middle" x="1248" y="-375.5" font-family="sans" font-size="10.00">lastdb_sequences</text>
</g>
<!-- 5&#45;&gt;4 -->
<g id="edge8" class="edge">
<title>5&#45;&gt;4</title>
<path fill="none" stroke="grey" stroke-width="2" d="M1259.1,-359.34C1263.6,-352.18 1268.91,-343.73 1273.94,-335.73"/>
<polygon fill="grey" stroke="grey" stroke-width="2" points="1276.78,-337.79 1279.14,-327.46 1270.85,-334.07 1276.78,-337.79"/>
</g>
<!-- 6 -->
<g id="node7" class="node">
<title>6</title>
<path fill="none" stroke="#d86e56" stroke-width="2" d="M1330.5,-468C1330.5,-468 1121.5,-468 1121.5,-468 1115.5,-468 1109.5,-462 1109.5,-456 1109.5,-456 1109.5,-444 1109.5,-444 1109.5,-438 1115.5,-432 1121.5,-432 1121.5,-432 1330.5,-432 1330.5,-432 1336.5,-432 1342.5,-438 1342.5,-444 1342.5,-444 1342.5,-456 1342.5,-456 1342.5,-462 1336.5,-468 1330.5,-468"/>
<text text-anchor="middle" x="1226" y="-447.5" font-family="sans" font-size="10.00">get_additional_compatible_sequences_fasta</text>
</g>
<!-- 6&#45;&gt;5 -->
<g id="edge11" class="edge">
<title>6&#45;&gt;5</title>
<path fill="none" stroke="grey" stroke-width="2" d="M1231.55,-431.34C1233.67,-424.59 1236.15,-416.69 1238.54,-409.11"/>
<polygon fill="grey" stroke="grey" stroke-width="2" points="1241.81,-410.38 1241.47,-399.79 1235.13,-408.28 1241.81,-410.38"/>
</g>
<!-- 7 -->
<g id="node8" class="node">
<title>7</title>
<path fill="none" stroke="#d8a456" stroke-width="2" d="M1210.5,-540C1210.5,-540 1007.5,-540 1007.5,-540 1001.5,-540 995.5,-534 995.5,-528 995.5,-528 995.5,-516 995.5,-516 995.5,-510 1001.5,-504 1007.5,-504 1007.5,-504 1210.5,-504 1210.5,-504 1216.5,-504 1222.5,-510 1222.5,-516 1222.5,-516 1222.5,-528 1222.5,-528 1222.5,-534 1216.5,-540 1210.5,-540"/>
<text text-anchor="middle" x="1109" y="-519.5" font-family="sans" font-size="10.00">get_additional_compatible_sequences_bed</text>
</g>
<!-- 7&#45;&gt;2 -->
<g id="edge7" class="edge">
<title>7&#45;&gt;2</title>
<path fill="none" stroke="grey" stroke-width="2" d="M1098.18,-503.35C1083.21,-477.2 1058,-426.15 1058,-379 1058,-379 1058,-379 1058,-305 1058,-266.65 1058,-222.48 1058,-193.72"/>
<polygon fill="grey" stroke="grey" stroke-width="2" points="1061.5,-193.96 1058,-183.96 1054.5,-193.96 1061.5,-193.96"/>
</g>
<!-- 7&#45;&gt;6 -->
<g id="edge12" class="edge">
<title>7&#45;&gt;6</title>
<path fill="none" stroke="grey" stroke-width="2" d="M1138.83,-503.15C1152.99,-494.68 1170.14,-484.42 1185.46,-475.25"/>
<polygon fill="grey" stroke="grey" stroke-width="2" points="1186.85,-478.5 1193.63,-470.37 1183.25,-472.5 1186.85,-478.5"/>
</g>
<!-- 8 -->
<g id="node9" class="node">
<title>8</title>
<path fill="none" stroke="#d6d856" stroke-width="2" d="M1149,-612C1149,-612 1069,-612 1069,-612 1063,-612 1057,-606 1057,-600 1057,-600 1057,-588 1057,-588 1057,-582 1063,-576 1069,-576 1069,-576 1149,-576 1149,-576 1155,-576 1161,-582 1161,-588 1161,-588 1161,-600 1161,-600 1161,-606 1155,-612 1149,-612"/>
<text text-anchor="middle" x="1109" y="-591.5" font-family="sans" font-size="10.00">update_all_numts</text>
</g>
<!-- 8&#45;&gt;7 -->
<g id="edge13" class="edge">
<title>8&#45;&gt;7</title>
<path fill="none" stroke="grey" stroke-width="2" d="M1109,-575.34C1109,-568.75 1109,-561.08 1109,-553.67"/>
<polygon fill="grey" stroke="grey" stroke-width="2" points="1112.5,-553.93 1109,-543.93 1105.5,-553.93 1112.5,-553.93"/>
</g>
<!-- 9 -->
<g id="node10" class="node">
<title>9</title>
<path fill="none" stroke="#9fd856" stroke-width="2" d="M1102.5,-972C1102.5,-972 993.5,-972 993.5,-972 987.5,-972 981.5,-966 981.5,-960 981.5,-960 981.5,-948 981.5,-948 981.5,-942 987.5,-936 993.5,-936 993.5,-936 1102.5,-936 1102.5,-936 1108.5,-936 1114.5,-942 1114.5,-948 1114.5,-948 1114.5,-960 1114.5,-960 1114.5,-966 1108.5,-972 1102.5,-972"/>
<text text-anchor="middle" x="1048" y="-951.5" font-family="sans" font-size="10.00">merge_all_comparisons</text>
</g>
<!-- 9&#45;&gt;8 -->
<g id="edge14" class="edge">
<title>9&#45;&gt;8</title>
<path fill="none" stroke="grey" stroke-width="2" d="M1032.91,-935.04C1012.88,-909.3 980,-859.65 980,-811 980,-811 980,-811 980,-737 980,-685.31 1027.4,-644.11 1064.74,-619.68"/>
<polygon fill="grey" stroke="grey" stroke-width="2" points="1066.28,-622.84 1072.88,-614.55 1062.55,-616.91 1066.28,-622.84"/>
</g>
<!-- 35 -->
<g id="node36" class="node">
<title>35</title>
<path fill="none" stroke="#d8c356" stroke-width="2" d="M1193,-900C1193,-900 1039,-900 1039,-900 1033,-900 1027,-894 1027,-888 1027,-888 1027,-876 1027,-876 1027,-870 1033,-864 1039,-864 1039,-864 1193,-864 1193,-864 1199,-864 1205,-870 1205,-876 1205,-876 1205,-888 1205,-888 1205,-894 1199,-900 1193,-900"/>
<text text-anchor="middle" x="1116" y="-879.5" font-family="sans" font-size="10.00">get_new_reference_numt_coords</text>
</g>
<!-- 9&#45;&gt;35 -->
<g id="edge66" class="edge">
<title>9&#45;&gt;35</title>
<path fill="none" stroke="grey" stroke-width="2" d="M1065.16,-935.34C1072.59,-927.69 1081.46,-918.56 1089.69,-910.08"/>
<polygon fill="grey" stroke="grey" stroke-width="2" points="1092.04,-912.68 1096.5,-903.07 1087.02,-907.81 1092.04,-912.68"/>
</g>
<!-- 10 -->
<g id="node11" class="node">
<title>10</title>
<path fill="none" stroke="#c6d856" stroke-width="2" d="M827,-1044C827,-1044 651,-1044 651,-1044 645,-1044 639,-1038 639,-1032 639,-1032 639,-1020 639,-1020 639,-1014 645,-1008 651,-1008 651,-1008 827,-1008 827,-1008 833,-1008 839,-1014 839,-1020 839,-1020 839,-1032 839,-1032 839,-1038 833,-1044 827,-1044"/>
<text text-anchor="middle" x="739" y="-1023.5" font-family="sans" font-size="10.00">merge_comparisons_forward_reverse</text>
</g>
<!-- 10&#45;&gt;9 -->
<g id="edge17" class="edge">
<title>10&#45;&gt;9</title>
<path fill="none" stroke="grey" stroke-width="2" d="M818.17,-1007.06C864.1,-996.66 921.79,-983.59 967.88,-973.15"/>
<polygon fill="grey" stroke="grey" stroke-width="2" points="968.62,-976.57 977.6,-970.95 967.07,-969.74 968.62,-976.57"/>
</g>
<!-- 11&#45;&gt;2 -->
<g id="edge4" class="edge">
<title>11&#45;&gt;2</title>
<path fill="none" stroke="grey" stroke-width="2" d="M445.27,-1382.95C317.08,-1378.57 155.03,-1366.15 98,-1332 57.07,-1307.49 38,-1290.7 38,-1243 38,-1243 38,-1243 38,-305 38,-214.85 671.17,-178.61 939.78,-167.29"/>
<polygon fill="grey" stroke="grey" stroke-width="2" points="939.81,-170.79 949.66,-166.88 939.52,-163.8 939.81,-170.79"/>
</g>
<!-- 11&#45;&gt;9 -->
<g id="edge16" class="edge">
<title>11&#45;&gt;9</title>
<path fill="none" stroke="grey" stroke-width="2" d="M790.87,-1377.88C974.39,-1369.38 1251.99,-1353.56 1356,-1332 1473.13,-1307.72 1610,-1362.62 1610,-1243 1610,-1243 1610,-1243 1610,-1097 1610,-998.75 1283.05,-967.77 1127.9,-958.6"/>
<polygon fill="grey" stroke="grey" stroke-width="2" points="1128.44,-955.12 1118.25,-958.04 1128.04,-962.11 1128.44,-955.12"/>
</g>
<!-- 11&#45;&gt;10 -->
<g id="edge20" class="edge">
<title>11&#45;&gt;10</title>
<path fill="none" stroke="grey" stroke-width="2" d="M445.13,-1371.54C351,-1362.54 244.97,-1349.18 201,-1332 137.48,-1307.17 76,-1311.2 76,-1243 76,-1243 76,-1243 76,-1169 76,-1125.99 79.14,-1105.2 114,-1080 154.37,-1050.82 456.35,-1036.27 625.32,-1030.35"/>
<polygon fill="grey" stroke="grey" stroke-width="2" points="625.35,-1033.85 635.23,-1030.01 625.11,-1026.86 625.35,-1033.85"/>
</g>
<!-- 20 -->
<g id="node21" class="node">
<title>20</title>
<path fill="none" stroke="#d8bc56" stroke-width="2" d="M261,-1116C261,-1116 135,-1116 135,-1116 129,-1116 123,-1110 123,-1104 123,-1104 123,-1092 123,-1092 123,-1086 129,-1080 135,-1080 135,-1080 261,-1080 261,-1080 267,-1080 273,-1086 273,-1092 273,-1092 273,-1104 273,-1104 273,-1110 267,-1116 261,-1116"/>
<text text-anchor="middle" x="198" y="-1095.5" font-family="sans" font-size="10.00">reference_in_other_reverse</text>
</g>
<!-- 11&#45;&gt;20 -->
<g id="edge40" class="edge">
<title>11&#45;&gt;20</title>
<path fill="none" stroke="grey" stroke-width="2" d="M482.25,-1367.01C359.55,-1347.65 192.18,-1312.38 152,-1260 144.88,-1250.72 142.87,-1181.53 154,-1152 157.48,-1142.77 163.28,-1133.98 169.56,-1126.31"/>
<polygon fill="grey" stroke="grey" stroke-width="2" points="172.16,-1128.66 176.21,-1118.87 166.94,-1123.99 172.16,-1128.66"/>
</g>
<!-- 22 -->
<g id="node23" class="node">
<title>22</title>
<path fill="none" stroke="#b6d856" stroke-width="2" d="M842,-1332C842,-1332 722,-1332 722,-1332 716,-1332 710,-1326 710,-1320 710,-1320 710,-1308 710,-1308 710,-1302 716,-1296 722,-1296 722,-1296 842,-1296 842,-1296 848,-1296 854,-1302 854,-1308 854,-1308 854,-1320 854,-1320 854,-1326 848,-1332 842,-1332"/>
<text text-anchor="middle" x="782" y="-1311.5" font-family="sans" font-size="10.00">prepare_numt_region_bed</text>
</g>
<!-- 11&#45;&gt;22 -->
<g id="edge42" class="edge">
<title>11&#45;&gt;22</title>
<path fill="none" stroke="grey" stroke-width="2" d="M659.81,-1367.15C680.55,-1358.3 705.84,-1347.51 728.03,-1338.04"/>
<polygon fill="grey" stroke="grey" stroke-width="2" points="729.38,-1341.27 737.2,-1334.12 726.63,-1334.83 729.38,-1341.27"/>
</g>
<!-- 25 -->
<g id="node26" class="node">
<title>25</title>
<path fill="none" stroke="#56d873" stroke-width="2" d="M660,-1116C660,-1116 576,-1116 576,-1116 570,-1116 564,-1110 564,-1104 564,-1104 564,-1092 564,-1092 564,-1086 570,-1080 576,-1080 576,-1080 660,-1080 660,-1080 666,-1080 672,-1086 672,-1092 672,-1092 672,-1104 672,-1104 672,-1110 666,-1116 660,-1116"/>
<text text-anchor="middle" x="618" y="-1095.5" font-family="sans" font-size="10.00">reference_in_other</text>
</g>
<!-- 11&#45;&gt;25 -->
<g id="edge49" class="edge">
<title>11&#45;&gt;25</title>
<path fill="none" stroke="grey" stroke-width="2" d="M583.75,-1367.18C548.5,-1346.69 495.64,-1309.4 473,-1260 446.78,-1202.77 516.8,-1151.57 568.44,-1122.96"/>
<polygon fill="grey" stroke="grey" stroke-width="2" points="569.97,-1126.11 577.12,-1118.3 566.66,-1119.95 569.97,-1126.11"/>
</g>
<!-- 26 -->
<g id="node27" class="node">
<title>26</title>
<path fill="none" stroke="#5663d8" stroke-width="2" d="M1068,-1116C1068,-1116 942,-1116 942,-1116 936,-1116 930,-1110 930,-1104 930,-1104 930,-1092 930,-1092 930,-1086 936,-1080 942,-1080 942,-1080 1068,-1080 1068,-1080 1074,-1080 1080,-1086 1080,-1092 1080,-1092 1080,-1104 1080,-1104 1080,-1110 1074,-1116 1068,-1116"/>
<text text-anchor="middle" x="1005" y="-1095.5" font-family="sans" font-size="10.00">other_in_reference_reverse</text>
</g>
<!-- 11&#45;&gt;26 -->
<g id="edge53" class="edge">
<title>11&#45;&gt;26</title>
<path fill="none" stroke="grey" stroke-width="2" d="M790.74,-1369.35C934.89,-1352.28 1124.09,-1319.14 1171,-1260 1213.86,-1205.96 1124.43,-1151.94 1060.96,-1122.25"/>
<polygon fill="grey" stroke="grey" stroke-width="2" points="1062.76,-1119.22 1052.21,-1118.26 1059.85,-1125.59 1062.76,-1119.22"/>
</g>
<!-- 30 -->
<g id="node31" class="node">
<title>30</title>
<path fill="none" stroke="#56d863" stroke-width="2" d="M1530,-1116C1530,-1116 1446,-1116 1446,-1116 1440,-1116 1434,-1110 1434,-1104 1434,-1104 1434,-1092 1434,-1092 1434,-1086 1440,-1080 1446,-1080 1446,-1080 1530,-1080 1530,-1080 1536,-1080 1542,-1086 1542,-1092 1542,-1092 1542,-1104 1542,-1104 1542,-1110 1536,-1116 1530,-1116"/>
<text text-anchor="middle" x="1488" y="-1095.5" font-family="sans" font-size="10.00">other_in_reference</text>
</g>
<!-- 11&#45;&gt;30 -->
<g id="edge61" class="edge">
<title>11&#45;&gt;30</title>
<path fill="none" stroke="grey" stroke-width="2" d="M790.98,-1373.63C1043.39,-1355.24 1488.02,-1315.36 1536,-1260 1567.44,-1223.72 1554.5,-1196.7 1537,-1152 1533.24,-1142.4 1526.84,-1133.5 1519.88,-1125.83"/>
<polygon fill="grey" stroke="grey" stroke-width="2" points="1522.59,-1123.6 1513.06,-1118.98 1517.63,-1128.54 1522.59,-1123.6"/>
</g>
<!-- 12 -->
<g id="node13" class="node">
<title>12</title>
<path fill="none" stroke="#61d856" stroke-width="2" d="M1391.5,-1476C1391.5,-1476 1158.5,-1476 1158.5,-1476 1152.5,-1476 1146.5,-1470 1146.5,-1464 1146.5,-1464 1146.5,-1452 1146.5,-1452 1146.5,-1446 1152.5,-1440 1158.5,-1440 1158.5,-1440 1391.5,-1440 1391.5,-1440 1397.5,-1440 1403.5,-1446 1403.5,-1452 1403.5,-1452 1403.5,-1464 1403.5,-1464 1403.5,-1470 1397.5,-1476 1391.5,-1476"/>
<text text-anchor="middle" x="1275" y="-1455.5" font-family="sans" font-size="10.00">replace_in_linear_df_with_alignments_over_edge</text>
</g>
<!-- 12&#45;&gt;11 -->
<g id="edge23" class="edge">
<title>12&#45;&gt;11</title>
<path fill="none" stroke="grey" stroke-width="2" d="M1145.59,-1443.21C1046.79,-1432.69 909.41,-1418.05 799.61,-1406.35"/>
<polygon fill="grey" stroke="grey" stroke-width="2" points="800.03,-1402.87 789.71,-1405.3 799.29,-1409.84 800.03,-1402.87"/>
</g>
<!-- 13 -->
<g id="node14" class="node">
<title>13</title>
<path fill="none" stroke="#88d856" stroke-width="2" d="M1304,-1620C1304,-1620 1188,-1620 1188,-1620 1182,-1620 1176,-1614 1176,-1608 1176,-1608 1176,-1596 1176,-1596 1176,-1590 1182,-1584 1188,-1584 1188,-1584 1304,-1584 1304,-1584 1310,-1584 1316,-1590 1316,-1596 1316,-1596 1316,-1608 1316,-1608 1316,-1614 1310,-1620 1304,-1620"/>
<text text-anchor="middle" x="1246" y="-1599.5" font-family="sans" font-size="10.00">align_circular_mtgenome</text>
</g>
<!-- 13&#45;&gt;12 -->
<g id="edge27" class="edge">
<title>13&#45;&gt;12</title>
<path fill="none" stroke="grey" stroke-width="2" d="M1243.07,-1583.27C1240.69,-1565.06 1238.66,-1536.06 1245,-1512 1247.19,-1503.68 1251.02,-1495.29 1255.23,-1487.72"/>
<polygon fill="grey" stroke="grey" stroke-width="2" points="1258.19,-1489.58 1260.39,-1479.22 1252.21,-1485.95 1258.19,-1489.58"/>
</g>
<!-- 18 -->
<g id="node19" class="node">
<title>18</title>
<path fill="none" stroke="#d8ac56" stroke-width="2" d="M1380,-1548C1380,-1548 1266,-1548 1266,-1548 1260,-1548 1254,-1542 1254,-1536 1254,-1536 1254,-1524 1254,-1524 1254,-1518 1260,-1512 1266,-1512 1266,-1512 1380,-1512 1380,-1512 1386,-1512 1392,-1518 1392,-1524 1392,-1524 1392,-1536 1392,-1536 1392,-1542 1386,-1548 1380,-1548"/>
<text text-anchor="middle" x="1323" y="-1527.5" font-family="sans" font-size="10.00">convert_maf_to_blasttab</text>
</g>
<!-- 13&#45;&gt;18 -->
<g id="edge34" class="edge">
<title>13&#45;&gt;18</title>
<path fill="none" stroke="grey" stroke-width="2" d="M1265.43,-1583.34C1274.03,-1575.52 1284.32,-1566.16 1293.81,-1557.53"/>
<polygon fill="grey" stroke="grey" stroke-width="2" points="1296.02,-1560.25 1301.07,-1550.94 1291.31,-1555.07 1296.02,-1560.25"/>
</g>
<!-- 14 -->
<g id="node15" class="node">
<title>14</title>
<path fill="none" stroke="#56d8b9" stroke-width="2" d="M1380,-1692C1380,-1692 1212,-1692 1212,-1692 1206,-1692 1200,-1686 1200,-1680 1200,-1680 1200,-1668 1200,-1668 1200,-1662 1206,-1656 1212,-1656 1212,-1656 1380,-1656 1380,-1656 1386,-1656 1392,-1662 1392,-1668 1392,-1668 1392,-1680 1392,-1680 1392,-1686 1386,-1692 1380,-1692"/>
<text text-anchor="middle" x="1296" y="-1671.5" font-family="sans" font-size="10.00">circularize_consensus_mtc_genome</text>
</g>
<!-- 14&#45;&gt;13 -->
<g id="edge28" class="edge">
<title>14&#45;&gt;13</title>
<path fill="none" stroke="grey" stroke-width="2" d="M1283.38,-1655.34C1278.21,-1648.1 1272.09,-1639.53 1266.32,-1631.45"/>
<polygon fill="grey" stroke="grey" stroke-width="2" points="1269.21,-1629.47 1260.55,-1623.37 1263.51,-1633.54 1269.21,-1629.47"/>
</g>
<!-- 15 -->
<g id="node16" class="node">
<title>15</title>
<path fill="none" stroke="#56a9d8" stroke-width="2" d="M1507.5,-1764C1507.5,-1764 1332.5,-1764 1332.5,-1764 1326.5,-1764 1320.5,-1758 1320.5,-1752 1320.5,-1752 1320.5,-1740 1320.5,-1740 1320.5,-1734 1326.5,-1728 1332.5,-1728 1332.5,-1728 1507.5,-1728 1507.5,-1728 1513.5,-1728 1519.5,-1734 1519.5,-1740 1519.5,-1740 1519.5,-1752 1519.5,-1752 1519.5,-1758 1513.5,-1764 1507.5,-1764"/>
<text text-anchor="middle" x="1420" y="-1743.5" font-family="sans" font-size="10.00">consensus_sus_scrofa_mtc_genomes</text>
</g>
<!-- 15&#45;&gt;4 -->
<g id="edge9" class="edge">
<title>15&#45;&gt;4</title>
<path fill="none" stroke="grey" stroke-width="2" d="M1520.34,-1734.57C1579.28,-1726.39 1646.19,-1712.83 1667,-1692 1695.59,-1663.38 1686,-1643.45 1686,-1603 1686,-1603 1686,-1603 1686,-449 1686,-385.07 1631.19,-386.46 1573,-360 1520.29,-336.03 1457.28,-322.9 1404.3,-315.71"/>
<polygon fill="grey" stroke="grey" stroke-width="2" points="1404.78,-312.24 1394.41,-314.44 1403.89,-319.19 1404.78,-312.24"/>
</g>
<!-- 15&#45;&gt;14 -->
<g id="edge30" class="edge">
<title>15&#45;&gt;14</title>
<path fill="none" stroke="grey" stroke-width="2" d="M1388.39,-1727.15C1373.23,-1718.6 1354.85,-1708.22 1338.49,-1698.99"/>
<polygon fill="grey" stroke="grey" stroke-width="2" points="1340.62,-1696.17 1330.19,-1694.3 1337.18,-1702.26 1340.62,-1696.17"/>
</g>
<!-- 19 -->
<g id="node20" class="node">
<title>19</title>
<path fill="none" stroke="#70d856" stroke-width="2" d="M1474,-1620C1474,-1620 1366,-1620 1366,-1620 1360,-1620 1354,-1614 1354,-1608 1354,-1608 1354,-1596 1354,-1596 1354,-1590 1360,-1584 1366,-1584 1366,-1584 1474,-1584 1474,-1584 1480,-1584 1486,-1590 1486,-1596 1486,-1596 1486,-1608 1486,-1608 1486,-1614 1480,-1620 1474,-1620"/>
<text text-anchor="middle" x="1420" y="-1599.5" font-family="sans" font-size="10.00">align_linear_mtgenome</text>
</g>
<!-- 15&#45;&gt;19 -->
<g id="edge35" class="edge">
<title>15&#45;&gt;19</title>
<path fill="none" stroke="grey" stroke-width="2" d="M1420,-1727.02C1420,-1703.54 1420,-1662.11 1420,-1633.64"/>
<polygon fill="grey" stroke="grey" stroke-width="2" points="1423.5,-1633.87 1420,-1623.87 1416.5,-1633.87 1423.5,-1633.87"/>
</g>
<!-- 16 -->
<g id="node17" class="node">
<title>16</title>
<path fill="none" stroke="#56d87b" stroke-width="2" d="M1494,-1836C1494,-1836 1346,-1836 1346,-1836 1340,-1836 1334,-1830 1334,-1824 1334,-1824 1334,-1812 1334,-1812 1334,-1806 1340,-1800 1346,-1800 1346,-1800 1494,-1800 1494,-1800 1500,-1800 1506,-1806 1506,-1812 1506,-1812 1506,-1824 1506,-1824 1506,-1830 1500,-1836 1494,-1836"/>
<text text-anchor="middle" x="1420" y="-1815.5" font-family="sans" font-size="10.00">align_sus_scrofa_mtc_genomes</text>
</g>
<!-- 16&#45;&gt;15 -->
<g id="edge31" class="edge">
<title>16&#45;&gt;15</title>
<path fill="none" stroke="grey" stroke-width="2" d="M1420,-1799.34C1420,-1792.75 1420,-1785.08 1420,-1777.67"/>
<polygon fill="grey" stroke="grey" stroke-width="2" points="1423.5,-1777.93 1420,-1767.93 1416.5,-1777.93 1423.5,-1777.93"/>
</g>
<!-- 17 -->
<g id="node18" class="node">
<title>17</title>
<path fill="none" stroke="#d87d56" stroke-width="2" d="M1498,-1908C1498,-1908 1342,-1908 1342,-1908 1336,-1908 1330,-1902 1330,-1896 1330,-1896 1330,-1884 1330,-1884 1330,-1878 1336,-1872 1342,-1872 1342,-1872 1498,-1872 1498,-1872 1504,-1872 1510,-1878 1510,-1884 1510,-1884 1510,-1896 1510,-1896 1510,-1902 1504,-1908 1498,-1908"/>
<text text-anchor="middle" x="1420" y="-1887.5" font-family="sans" font-size="10.00">concat_sus_scrofa_mtc_genomes</text>
</g>
<!-- 17&#45;&gt;16 -->
<g id="edge32" class="edge">
<title>17&#45;&gt;16</title>
<path fill="none" stroke="grey" stroke-width="2" d="M1420,-1871.34C1420,-1864.75 1420,-1857.08 1420,-1849.67"/>
<polygon fill="grey" stroke="grey" stroke-width="2" points="1423.5,-1849.93 1420,-1839.93 1416.5,-1849.93 1423.5,-1849.93"/>
</g>
<!-- 18&#45;&gt;12 -->
<g id="edge26" class="edge">
<title>18&#45;&gt;12</title>
<path fill="none" stroke="grey" stroke-width="2" d="M1310.89,-1511.34C1305.92,-1504.1 1300.05,-1495.53 1294.51,-1487.45"/>
<polygon fill="grey" stroke="grey" stroke-width="2" points="1297.53,-1485.67 1288.99,-1479.4 1291.76,-1489.62 1297.53,-1485.67"/>
</g>
<!-- 19&#45;&gt;12 -->
<g id="edge25" class="edge">
<title>19&#45;&gt;12</title>
<path fill="none" stroke="grey" stroke-width="2" d="M1420.81,-1583.23C1420.75,-1563.63 1417.72,-1532.2 1401,-1512 1390.45,-1499.25 1376.3,-1489.52 1361.29,-1482.1"/>
<polygon fill="grey" stroke="grey" stroke-width="2" points="1363.01,-1479.04 1352.45,-1478.11 1360.13,-1485.42 1363.01,-1479.04"/>
</g>
<!-- 19&#45;&gt;18 -->
<g id="edge33" class="edge">
<title>19&#45;&gt;18</title>
<path fill="none" stroke="grey" stroke-width="2" d="M1395.27,-1583.15C1383.98,-1575.01 1370.41,-1565.22 1358.1,-1556.33"/>
<polygon fill="grey" stroke="grey" stroke-width="2" points="1360.29,-1553.6 1350.14,-1550.58 1356.2,-1559.27 1360.29,-1553.6"/>
</g>
<!-- 20&#45;&gt;10 -->
<g id="edge21" class="edge">
<title>20&#45;&gt;10</title>
<path fill="none" stroke="grey" stroke-width="2" d="M273.79,-1087.19C365.31,-1075.35 520.08,-1055.33 625.77,-1041.65"/>
<polygon fill="grey" stroke="grey" stroke-width="2" points="625.94,-1045.16 635.41,-1040.4 625.04,-1038.22 625.94,-1045.16"/>
</g>
<!-- 21 -->
<g id="node22" class="node">
<title>21</title>
<path fill="none" stroke="#56d8d0" stroke-width="2" d="M414,-1260C414,-1260 192,-1260 192,-1260 186,-1260 180,-1254 180,-1248 180,-1248 180,-1236 180,-1236 180,-1230 186,-1224 192,-1224 192,-1224 414,-1224 414,-1224 420,-1224 426,-1230 426,-1236 426,-1236 426,-1248 426,-1248 426,-1254 420,-1260 414,-1260"/>
<text text-anchor="middle" x="303" y="-1239.5" font-family="sans" font-size="10.00">maf_cut_extract_numt_region_from_alignment</text>
</g>
<!-- 21&#45;&gt;20 -->
<g id="edge38" class="edge">
<title>21&#45;&gt;20</title>
<path fill="none" stroke="grey" stroke-width="2" d="M259.62,-1223.14C243.99,-1214.67 227.62,-1203.05 217,-1188 205.02,-1171.03 200.34,-1148.01 198.61,-1129.64"/>
<polygon fill="grey" stroke="grey" stroke-width="2" points="202.11,-1129.45 197.99,-1119.69 195.12,-1129.89 202.11,-1129.45"/>
</g>
<!-- 23 -->
<g id="node24" class="node">
<title>23</title>
<path fill="none" stroke="#d86656" stroke-width="2" d="M414,-1188C414,-1188 238,-1188 238,-1188 232,-1188 226,-1182 226,-1176 226,-1176 226,-1164 226,-1164 226,-1158 232,-1152 238,-1152 238,-1152 414,-1152 414,-1152 420,-1152 426,-1158 426,-1164 426,-1164 426,-1176 426,-1176 426,-1182 420,-1188 414,-1188"/>
<text text-anchor="middle" x="326" y="-1167.5" font-family="sans" font-size="10.00">convert_cut_regions_maf_to_blasttab</text>
</g>
<!-- 21&#45;&gt;23 -->
<g id="edge44" class="edge">
<title>21&#45;&gt;23</title>
<path fill="none" stroke="grey" stroke-width="2" d="M308.8,-1223.34C311.02,-1216.59 313.61,-1208.69 316.11,-1201.11"/>
<polygon fill="grey" stroke="grey" stroke-width="2" points="319.38,-1202.37 319.17,-1191.78 312.73,-1200.19 319.38,-1202.37"/>
</g>
<!-- 22&#45;&gt;20 -->
<g id="edge37" class="edge">
<title>22&#45;&gt;20</title>
<path fill="none" stroke="grey" stroke-width="2" d="M709.07,-1312.08C554.83,-1309.37 206.73,-1298.97 171,-1260 138.04,-1224.06 161.58,-1163.71 180.56,-1127.99"/>
<polygon fill="grey" stroke="grey" stroke-width="2" points="183.46,-1129.98 185.26,-1119.54 177.34,-1126.58 183.46,-1129.98"/>
</g>
<!-- 22&#45;&gt;21 -->
<g id="edge41" class="edge">
<title>22&#45;&gt;21</title>
<path fill="none" stroke="grey" stroke-width="2" d="M709.25,-1302.37C637.66,-1291.91 526.6,-1275.68 438.69,-1262.83"/>
<polygon fill="grey" stroke="grey" stroke-width="2" points="439.29,-1259.38 428.89,-1261.4 438.28,-1266.31 439.29,-1259.38"/>
</g>
<!-- 24 -->
<g id="node25" class="node">
<title>24</title>
<path fill="none" stroke="#56d892" stroke-width="2" d="M742,-1260C742,-1260 494,-1260 494,-1260 488,-1260 482,-1254 482,-1248 482,-1248 482,-1236 482,-1236 482,-1230 488,-1224 494,-1224 494,-1224 742,-1224 742,-1224 748,-1224 754,-1230 754,-1236 754,-1236 754,-1248 754,-1248 754,-1254 748,-1260 742,-1260"/>
<text text-anchor="middle" x="618" y="-1239.5" font-family="sans" font-size="10.00">maf_cut_extract_reference_regions_from_alignment</text>
</g>
<!-- 22&#45;&gt;24 -->
<g id="edge45" class="edge">
<title>22&#45;&gt;24</title>
<path fill="none" stroke="grey" stroke-width="2" d="M740.19,-1295.15C719.45,-1286.3 694.16,-1275.51 671.97,-1266.04"/>
<polygon fill="grey" stroke="grey" stroke-width="2" points="673.37,-1262.83 662.8,-1262.12 670.62,-1269.27 673.37,-1262.83"/>
</g>
<!-- 22&#45;&gt;25 -->
<g id="edge47" class="edge">
<title>22&#45;&gt;25</title>
<path fill="none" stroke="grey" stroke-width="2" d="M781.5,-1295.07C780.24,-1276.18 776.13,-1246.16 763,-1224 737.73,-1181.35 692.69,-1145.97 659.5,-1123.86"/>
<polygon fill="grey" stroke="grey" stroke-width="2" points="661.57,-1121.04 651.28,-1118.53 657.76,-1126.91 661.57,-1121.04"/>
</g>
<!-- 22&#45;&gt;26 -->
<g id="edge50" class="edge">
<title>22&#45;&gt;26</title>
<path fill="none" stroke="grey" stroke-width="2" d="M790.87,-1295.33C800.9,-1276.39 818.54,-1246.07 839,-1224 876.51,-1183.53 928.45,-1146.8 964.19,-1123.79"/>
<polygon fill="grey" stroke="grey" stroke-width="2" points="966.06,-1126.74 972.63,-1118.43 962.31,-1120.83 966.06,-1126.74"/>
</g>
<!-- 27 -->
<g id="node28" class="node">
<title>27</title>
<path fill="none" stroke="#97d856" stroke-width="2" d="M1150,-1260C1150,-1260 860,-1260 860,-1260 854,-1260 848,-1254 848,-1248 848,-1248 848,-1236 848,-1236 848,-1230 854,-1224 860,-1224 860,-1224 1150,-1224 1150,-1224 1156,-1224 1162,-1230 1162,-1236 1162,-1236 1162,-1248 1162,-1248 1162,-1254 1156,-1260 1150,-1260"/>
<text text-anchor="middle" x="1005" y="-1239.5" font-family="sans" font-size="10.00">maf_cut_extract_reference_regions_from_reverse_alignment</text>
</g>
<!-- 22&#45;&gt;27 -->
<g id="edge54" class="edge">
<title>22&#45;&gt;27</title>
<path fill="none" stroke="grey" stroke-width="2" d="M839.14,-1295.06C868.64,-1285.8 904.88,-1274.43 935.94,-1264.68"/>
<polygon fill="grey" stroke="grey" stroke-width="2" points="936.63,-1268.13 945.12,-1261.8 934.53,-1261.45 936.63,-1268.13"/>
</g>
<!-- 29 -->
<g id="node30" class="node">
<title>29</title>
<path fill="none" stroke="#56c9d8" stroke-width="2" d="M1494,-1260C1494,-1260 1230,-1260 1230,-1260 1224,-1260 1218,-1254 1218,-1248 1218,-1248 1218,-1236 1218,-1236 1218,-1230 1224,-1224 1230,-1224 1230,-1224 1494,-1224 1494,-1224 1500,-1224 1506,-1230 1506,-1236 1506,-1236 1506,-1248 1506,-1248 1506,-1254 1500,-1260 1494,-1260"/>
<text text-anchor="middle" x="1362" y="-1239.5" font-family="sans" font-size="10.00">maf_cut_extract_numt_region_from_reverse_alignment</text>
</g>
<!-- 22&#45;&gt;29 -->
<g id="edge57" class="edge">
<title>22&#45;&gt;29</title>
<path fill="none" stroke="grey" stroke-width="2" d="M854.87,-1304.21C942.11,-1293.68 1090.7,-1275.74 1204.56,-1262"/>
<polygon fill="grey" stroke="grey" stroke-width="2" points="1204.7,-1265.51 1214.21,-1260.84 1203.86,-1258.56 1204.7,-1265.51"/>
</g>
<!-- 22&#45;&gt;30 -->
<g id="edge58" class="edge">
<title>22&#45;&gt;30</title>
<path fill="none" stroke="grey" stroke-width="2" d="M854.96,-1313.23C1031.53,-1313.01 1470.68,-1307.64 1515,-1260 1548.21,-1224.3 1524.59,-1163.86 1505.52,-1128.07"/>
<polygon fill="grey" stroke="grey" stroke-width="2" points="1508.72,-1126.62 1500.79,-1119.59 1502.61,-1130.03 1508.72,-1126.62"/>
</g>
<!-- 23&#45;&gt;20 -->
<g id="edge39" class="edge">
<title>23&#45;&gt;20</title>
<path fill="none" stroke="grey" stroke-width="2" d="M293.37,-1151.15C277.72,-1142.6 258.75,-1132.22 241.86,-1122.99"/>
<polygon fill="grey" stroke="grey" stroke-width="2" points="243.68,-1119.99 233.23,-1118.26 240.32,-1126.13 243.68,-1119.99"/>
</g>
<!-- 23&#45;&gt;25 -->
<g id="edge48" class="edge">
<title>23&#45;&gt;25</title>
<path fill="none" stroke="grey" stroke-width="2" d="M400.82,-1151.06C447.06,-1139.98 505.9,-1125.87 550.68,-1115.14"/>
<polygon fill="grey" stroke="grey" stroke-width="2" points="551.35,-1118.58 560.26,-1112.84 549.72,-1111.77 551.35,-1118.58"/>
</g>
<!-- 24&#45;&gt;23 -->
<g id="edge43" class="edge">
<title>24&#45;&gt;23</title>
<path fill="none" stroke="grey" stroke-width="2" d="M543.18,-1223.06C503.6,-1213.57 454.77,-1201.87 413.44,-1191.96"/>
<polygon fill="grey" stroke="grey" stroke-width="2" points="414.36,-1188.58 403.82,-1189.66 412.73,-1195.39 414.36,-1188.58"/>
</g>
<!-- 24&#45;&gt;25 -->
<g id="edge46" class="edge">
<title>24&#45;&gt;25</title>
<path fill="none" stroke="grey" stroke-width="2" d="M618,-1223.02C618,-1199.54 618,-1158.11 618,-1129.64"/>
<polygon fill="grey" stroke="grey" stroke-width="2" points="621.5,-1129.87 618,-1119.87 614.5,-1129.87 621.5,-1129.87"/>
</g>
<!-- 25&#45;&gt;10 -->
<g id="edge19" class="edge">
<title>25&#45;&gt;10</title>
<path fill="none" stroke="grey" stroke-width="2" d="M648.85,-1079.15C663.5,-1070.68 681.23,-1060.42 697.07,-1051.25"/>
<polygon fill="grey" stroke="grey" stroke-width="2" points="698.69,-1054.37 705.59,-1046.33 695.18,-1048.31 698.69,-1054.37"/>
</g>
<!-- 26&#45;&gt;10 -->
<g id="edge22" class="edge">
<title>26&#45;&gt;10</title>
<path fill="none" stroke="grey" stroke-width="2" d="M936.84,-1079.06C901.03,-1069.64 856.9,-1058.03 819.41,-1048.16"/>
<polygon fill="grey" stroke="grey" stroke-width="2" points="820.47,-1044.82 809.91,-1045.66 818.69,-1051.59 820.47,-1044.82"/>
</g>
<!-- 27&#45;&gt;26 -->
<g id="edge51" class="edge">
<title>27&#45;&gt;26</title>
<path fill="none" stroke="grey" stroke-width="2" d="M1005,-1223.02C1005,-1199.54 1005,-1158.11 1005,-1129.64"/>
<polygon fill="grey" stroke="grey" stroke-width="2" points="1008.5,-1129.87 1005,-1119.87 1001.5,-1129.87 1008.5,-1129.87"/>
</g>
<!-- 28 -->
<g id="node29" class="node">
<title>28</title>
<path fill="none" stroke="#56d8a9" stroke-width="2" d="M1448,-1188C1448,-1188 1230,-1188 1230,-1188 1224,-1188 1218,-1182 1218,-1176 1218,-1176 1218,-1164 1218,-1164 1218,-1158 1224,-1152 1230,-1152 1230,-1152 1448,-1152 1448,-1152 1454,-1152 1460,-1158 1460,-1164 1460,-1164 1460,-1176 1460,-1176 1460,-1182 1454,-1188 1448,-1188"/>
<text text-anchor="middle" x="1339" y="-1167.5" font-family="sans" font-size="10.00">convert_cut_regions_reverse_maf_to_blasttab</text>
</g>
<!-- 27&#45;&gt;28 -->
<g id="edge56" class="edge">
<title>27&#45;&gt;28</title>
<path fill="none" stroke="grey" stroke-width="2" d="M1090.58,-1223.06C1136.44,-1213.45 1193.16,-1201.57 1240.81,-1191.58"/>
<polygon fill="grey" stroke="grey" stroke-width="2" points="1241.32,-1195.05 1250.39,-1189.57 1239.89,-1188.2 1241.32,-1195.05"/>
</g>
<!-- 28&#45;&gt;26 -->
<g id="edge52" class="edge">
<title>28&#45;&gt;26</title>
<path fill="none" stroke="grey" stroke-width="2" d="M1253.42,-1151.06C1204.44,-1140.8 1143.08,-1127.94 1093.6,-1117.57"/>
<polygon fill="grey" stroke="grey" stroke-width="2" points="1094.43,-1114.17 1083.92,-1115.54 1092.99,-1121.02 1094.43,-1114.17"/>
</g>
<!-- 28&#45;&gt;30 -->
<g id="edge60" class="edge">
<title>28&#45;&gt;30</title>
<path fill="none" stroke="grey" stroke-width="2" d="M1376.98,-1151.15C1395.56,-1142.43 1418.17,-1131.81 1438.12,-1122.43"/>
<polygon fill="grey" stroke="grey" stroke-width="2" points="1439.52,-1125.64 1447.09,-1118.22 1436.55,-1119.31 1439.52,-1125.64"/>
</g>
<!-- 29&#45;&gt;28 -->
<g id="edge55" class="edge">
<title>29&#45;&gt;28</title>
<path fill="none" stroke="grey" stroke-width="2" d="M1356.2,-1223.34C1353.98,-1216.59 1351.39,-1208.69 1348.89,-1201.11"/>
<polygon fill="grey" stroke="grey" stroke-width="2" points="1352.27,-1200.19 1345.83,-1191.78 1345.62,-1202.37 1352.27,-1200.19"/>
</g>
<!-- 29&#45;&gt;30 -->
<g id="edge59" class="edge">
<title>29&#45;&gt;30</title>
<path fill="none" stroke="grey" stroke-width="2" d="M1421.11,-1223.06C1438.88,-1214.98 1456.85,-1203.63 1469,-1188 1481.81,-1171.52 1486.46,-1148.34 1487.96,-1129.77"/>
<polygon fill="grey" stroke="grey" stroke-width="2" points="1491.44,-1130.12 1488.42,-1119.96 1484.45,-1129.79 1491.44,-1130.12"/>
</g>
<!-- 30&#45;&gt;10 -->
<g id="edge18" class="edge">
<title>30&#45;&gt;10</title>
<path fill="none" stroke="grey" stroke-width="2" d="M1433.23,-1091.88C1311.37,-1080.49 1015.74,-1052.86 852.31,-1037.59"/>
<polygon fill="grey" stroke="grey" stroke-width="2" points="853.11,-1034.15 842.82,-1036.7 852.45,-1041.12 853.11,-1034.15"/>
</g>
<!-- 31 -->
<g id="node32" class="node">
<title>31</title>
<path fill="none" stroke="#5692d8" stroke-width="2" d="M1170,-1692C1170,-1692 994,-1692 994,-1692 988,-1692 982,-1686 982,-1680 982,-1680 982,-1668 982,-1668 982,-1662 988,-1656 994,-1656 994,-1656 1170,-1656 1170,-1656 1176,-1656 1182,-1662 1182,-1668 1182,-1668 1182,-1680 1182,-1680 1182,-1686 1176,-1692 1170,-1692"/>
<text text-anchor="middle" x="1082" y="-1671.5" font-family="sans" font-size="10.00">circularize_non_scrofa_mtc_genomes</text>
</g>
<!-- 31&#45;&gt;13 -->
<g id="edge29" class="edge">
<title>31&#45;&gt;13</title>
<path fill="none" stroke="grey" stroke-width="2" d="M1123.81,-1655.15C1144.55,-1646.3 1169.84,-1635.51 1192.03,-1626.04"/>
<polygon fill="grey" stroke="grey" stroke-width="2" points="1193.38,-1629.27 1201.2,-1622.12 1190.63,-1622.83 1193.38,-1629.27"/>
</g>
<!-- 32 -->
<g id="node33" class="node">
<title>32</title>
<path fill="none" stroke="#d89556" stroke-width="2" d="M1645.5,-1692C1645.5,-1692 1460.5,-1692 1460.5,-1692 1454.5,-1692 1448.5,-1686 1448.5,-1680 1448.5,-1680 1448.5,-1668 1448.5,-1668 1448.5,-1662 1454.5,-1656 1460.5,-1656 1460.5,-1656 1645.5,-1656 1645.5,-1656 1651.5,-1656 1657.5,-1662 1657.5,-1668 1657.5,-1668 1657.5,-1680 1657.5,-1680 1657.5,-1686 1651.5,-1692 1645.5,-1692"/>
<text text-anchor="middle" x="1553" y="-1671.5" font-family="sans" font-size="10.00">prepare_non_sus_scrofa_mtc_genomes</text>
</g>
<!-- 32&#45;&gt;4 -->
<g id="edge10" class="edge">
<title>32&#45;&gt;4</title>
<path fill="none" stroke="grey" stroke-width="2" d="M1575.03,-1655.36C1603.1,-1630.74 1648,-1583.2 1648,-1531 1648,-1531 1648,-1531 1648,-449 1648,-394.49 1502.18,-351.59 1397.19,-327.77"/>
<polygon fill="grey" stroke="grey" stroke-width="2" points="1398.08,-324.38 1387.56,-325.62 1396.56,-331.21 1398.08,-324.38"/>
</g>
<!-- 32&#45;&gt;19 -->
<g id="edge36" class="edge">
<title>32&#45;&gt;19</title>
<path fill="none" stroke="grey" stroke-width="2" d="M1519.09,-1655.15C1502.76,-1646.56 1482.93,-1636.12 1465.32,-1626.85"/>
<polygon fill="grey" stroke="grey" stroke-width="2" points="1467,-1623.78 1456.52,-1622.22 1463.74,-1629.98 1467,-1623.78"/>
</g>
<!-- 33 -->
<g id="node34" class="node">
<title>33</title>
<path fill="none" stroke="#56d8c9" stroke-width="2" d="M1222.5,-684C1222.5,-684 1125.5,-684 1125.5,-684 1119.5,-684 1113.5,-678 1113.5,-672 1113.5,-672 1113.5,-660 1113.5,-660 1113.5,-654 1119.5,-648 1125.5,-648 1125.5,-648 1222.5,-648 1222.5,-648 1228.5,-648 1234.5,-654 1234.5,-660 1234.5,-660 1234.5,-672 1234.5,-672 1234.5,-678 1228.5,-684 1222.5,-684"/>
<text text-anchor="middle" x="1174" y="-663.5" font-family="sans" font-size="10.00">get_dfs_from_maf_bt</text>
</g>
<!-- 33&#45;&gt;8 -->
<g id="edge15" class="edge">
<title>33&#45;&gt;8</title>
<path fill="none" stroke="grey" stroke-width="2" d="M1157.6,-647.34C1150.57,-639.77 1142.2,-630.75 1134.4,-622.35"/>
<polygon fill="grey" stroke="grey" stroke-width="2" points="1137.05,-620.07 1127.68,-615.12 1131.92,-624.83 1137.05,-620.07"/>
</g>
<!-- 34 -->
<g id="node35" class="node">
<title>34</title>
<path fill="none" stroke="#56d0d8" stroke-width="2" d="M1211.5,-828C1211.5,-828 1020.5,-828 1020.5,-828 1014.5,-828 1008.5,-822 1008.5,-816 1008.5,-816 1008.5,-804 1008.5,-804 1008.5,-798 1014.5,-792 1020.5,-792 1020.5,-792 1211.5,-792 1211.5,-792 1217.5,-792 1223.5,-798 1223.5,-804 1223.5,-804 1223.5,-816 1223.5,-816 1223.5,-822 1217.5,-828 1211.5,-828"/>
<text text-anchor="middle" x="1116" y="-807.5" font-family="sans" font-size="10.00">maf_cut_new_numt_coords_ref_to_other</text>
</g>
<!-- 34&#45;&gt;33 -->
<g id="edge63" class="edge">
<title>34&#45;&gt;33</title>
<path fill="none" stroke="grey" stroke-width="2" d="M1115.16,-791.11C1114.97,-772.52 1116.62,-742.99 1127,-720 1131.22,-710.65 1137.69,-701.76 1144.48,-694.03"/>
<polygon fill="grey" stroke="grey" stroke-width="2" points="1147.01,-696.45 1151.36,-686.79 1141.93,-691.63 1147.01,-696.45"/>
</g>
<!-- 36 -->
<g id="node37" class="node">
<title>36</title>
<path fill="none" stroke="#d88556" stroke-width="2" d="M1329.5,-756C1329.5,-756 1148.5,-756 1148.5,-756 1142.5,-756 1136.5,-750 1136.5,-744 1136.5,-744 1136.5,-732 1136.5,-732 1136.5,-726 1142.5,-720 1148.5,-720 1148.5,-720 1329.5,-720 1329.5,-720 1335.5,-720 1341.5,-726 1341.5,-732 1341.5,-732 1341.5,-744 1341.5,-744 1341.5,-750 1335.5,-756 1329.5,-756"/>
<text text-anchor="middle" x="1239" y="-735.5" font-family="sans" font-size="10.00">convert_new_regions_maf_to_blasttab</text>
</g>
<!-- 34&#45;&gt;36 -->
<g id="edge67" class="edge">
<title>34&#45;&gt;36</title>
<path fill="none" stroke="grey" stroke-width="2" d="M1147.36,-791.15C1162.25,-782.68 1180.27,-772.42 1196.38,-763.25"/>
<polygon fill="grey" stroke="grey" stroke-width="2" points="1198.11,-766.3 1205.07,-758.31 1194.65,-760.21 1198.11,-766.3"/>
</g>
<!-- 35&#45;&gt;34 -->
<g id="edge65" class="edge">
<title>35&#45;&gt;34</title>
<path fill="none" stroke="grey" stroke-width="2" d="M1116,-863.34C1116,-856.75 1116,-849.08 1116,-841.67"/>
<polygon fill="grey" stroke="grey" stroke-width="2" points="1119.5,-841.93 1116,-831.93 1112.5,-841.93 1119.5,-841.93"/>
</g>
<!-- 37 -->
<g id="node38" class="node">
<title>37</title>
<path fill="none" stroke="#78d856" stroke-width="2" d="M1486.5,-828C1486.5,-828 1253.5,-828 1253.5,-828 1247.5,-828 1241.5,-822 1241.5,-816 1241.5,-816 1241.5,-804 1241.5,-804 1241.5,-798 1247.5,-792 1253.5,-792 1253.5,-792 1486.5,-792 1486.5,-792 1492.5,-792 1498.5,-798 1498.5,-804 1498.5,-804 1498.5,-816 1498.5,-816 1498.5,-822 1492.5,-828 1486.5,-828"/>
<text text-anchor="middle" x="1370" y="-807.5" font-family="sans" font-size="10.00">maf_cut_new_numt_coords_other_to_ref_reverse</text>
</g>
<!-- 35&#45;&gt;37 -->
<g id="edge69" class="edge">
<title>35&#45;&gt;37</title>
<path fill="none" stroke="grey" stroke-width="2" d="M1181.08,-863.06C1215.14,-853.68 1257.05,-842.13 1292.75,-832.29"/>
<polygon fill="grey" stroke="grey" stroke-width="2" points="1293.46,-835.72 1302.17,-829.69 1291.6,-828.98 1293.46,-835.72"/>
</g>
<!-- 36&#45;&gt;33 -->
<g id="edge62" class="edge">
<title>36&#45;&gt;33</title>
<path fill="none" stroke="grey" stroke-width="2" d="M1222.6,-719.34C1215.57,-711.77 1207.2,-702.75 1199.4,-694.35"/>
<polygon fill="grey" stroke="grey" stroke-width="2" points="1202.05,-692.07 1192.68,-687.12 1196.92,-696.83 1202.05,-692.07"/>
</g>
<!-- 37&#45;&gt;33 -->
<g id="edge64" class="edge">
<title>37&#45;&gt;33</title>
<path fill="none" stroke="grey" stroke-width="2" d="M1371.19,-791.24C1371.52,-771.36 1368.89,-739.39 1351,-720 1324.64,-691.42 1283.56,-678.02 1247.61,-671.84"/>
<polygon fill="grey" stroke="grey" stroke-width="2" points="1248.55,-668.44 1238.13,-670.39 1247.49,-675.36 1248.55,-668.44"/>
</g>
<!-- 37&#45;&gt;36 -->
<g id="edge68" class="edge">
<title>37&#45;&gt;36</title>
<path fill="none" stroke="grey" stroke-width="2" d="M1336.6,-791.15C1320.44,-782.52 1300.8,-772.02 1283.39,-762.72"/>
<polygon fill="grey" stroke="grey" stroke-width="2" points="1285.47,-759.87 1275,-758.24 1282.17,-766.04 1285.47,-759.87"/>
</g>
<!-- 38&#45;&gt;2 -->
<g id="edge6" class="edge">
<title>38&#45;&gt;2</title>
<path fill="none" stroke="grey" stroke-width="2" d="M1145.17,-215.15C1131.01,-206.68 1113.86,-196.42 1098.54,-187.25"/>
<polygon fill="grey" stroke="grey" stroke-width="2" points="1100.75,-184.5 1090.37,-182.37 1097.15,-190.5 1100.75,-184.5"/>
</g>
</g>
</svg>
