<?xml version="1.0" encoding="UTF-8" standalone="no"?>
<!DOCTYPE svg PUBLIC "-//W3C//DTD SVG 1.1//EN"
 "http://www.w3.org/Graphics/SVG/1.1/DTD/svg11.dtd">
<!-- Generated by graphviz version 7.0.5 (20221231.0122)
 -->
<!-- Title: snakemake_dag Pages: 1 -->
<svg width="1892pt" height="1916pt"
 viewBox="0.00 0.00 1892.40 1916.00" xmlns="http://www.w3.org/2000/svg" xmlns:xlink="http://www.w3.org/1999/xlink">
<g id="graph0" class="graph" transform="scale(1 1) rotate(0) translate(4 1912)">
<title>snakemake_dag</title>
<polygon fill="white" stroke="none" points="-4,4 -4,-1912 1888.4,-1912 1888.4,4 -4,4"/>
<!-- 0 -->
<g id="node1" class="node">
<title>0</title>
<path fill="none" stroke="#56a9d8" stroke-width="2" d="M461.4,-36C461.4,-36 431.4,-36 431.4,-36 425.4,-36 419.4,-30 419.4,-24 419.4,-24 419.4,-12 419.4,-12 419.4,-6 425.4,0 431.4,0 431.4,0 461.4,0 461.4,0 467.4,0 473.4,-6 473.4,-12 473.4,-12 473.4,-24 473.4,-24 473.4,-30 467.4,-36 461.4,-36"/>
<text text-anchor="middle" x="446.4" y="-15.5" font-family="sans" font-size="10.00">all</text>
</g>
<!-- 1 -->
<g id="node2" class="node">
<title>1</title>
<path fill="none" stroke="#56d8a9" stroke-width="2" d="M411.4,-108C411.4,-108 349.4,-108 349.4,-108 343.4,-108 337.4,-102 337.4,-96 337.4,-96 337.4,-84 337.4,-84 337.4,-78 343.4,-72 349.4,-72 349.4,-72 411.4,-72 411.4,-72 417.4,-72 423.4,-78 423.4,-84 423.4,-84 423.4,-96 423.4,-96 423.4,-102 417.4,-108 411.4,-108"/>
<text text-anchor="middle" x="380.4" y="-87.5" font-family="sans" font-size="10.00">updated_stats</text>
</g>
<!-- 1&#45;&gt;0 -->
<g id="edge1" class="edge">
<title>1&#45;&gt;0</title>
<path fill="none" stroke="grey" stroke-width="2" d="M397.05,-71.34C404.19,-63.77 412.69,-54.75 420.61,-46.35"/>
<polygon fill="grey" stroke="grey" stroke-width="2" points="423.13,-48.78 427.44,-39.1 418.03,-43.98 423.13,-48.78"/>
</g>
<!-- 2 -->
<g id="node3" class="node">
<title>2</title>
<path fill="none" stroke="#78d856" stroke-width="2" d="M441.9,-180C441.9,-180 256.9,-180 256.9,-180 250.9,-180 244.9,-174 244.9,-168 244.9,-168 244.9,-156 244.9,-156 244.9,-150 250.9,-144 256.9,-144 256.9,-144 441.9,-144 441.9,-144 447.9,-144 453.9,-150 453.9,-156 453.9,-156 453.9,-168 453.9,-168 453.9,-174 447.9,-180 441.9,-180"/>
<text text-anchor="middle" x="349.4" y="-159.5" font-family="sans" font-size="10.00">add_additional_seqs_to_original_numts</text>
</g>
<!-- 2&#45;&gt;1 -->
<g id="edge3" class="edge">
<title>2&#45;&gt;1</title>
<path fill="none" stroke="grey" stroke-width="2" d="M357.22,-143.34C360.28,-136.43 363.87,-128.31 367.31,-120.56"/>
<polygon fill="grey" stroke="grey" stroke-width="2" points="370.39,-122.23 371.24,-111.67 363.99,-119.4 370.39,-122.23"/>
</g>
<!-- 3 -->
<g id="node4" class="node">
<title>3</title>
<path fill="none" stroke="#d86e56" stroke-width="2" d="M764.4,-1476C764.4,-1476 562.4,-1476 562.4,-1476 556.4,-1476 550.4,-1470 550.4,-1464 550.4,-1464 550.4,-1452 550.4,-1452 550.4,-1446 556.4,-1440 562.4,-1440 562.4,-1440 764.4,-1440 764.4,-1440 770.4,-1440 776.4,-1446 776.4,-1452 776.4,-1452 776.4,-1464 776.4,-1464 776.4,-1470 770.4,-1476 764.4,-1476"/>
<text text-anchor="middle" x="663.4" y="-1455.5" font-family="sans" font-size="10.00">get_mtc_scaffolds_from_assembly_reports</text>
</g>
<!-- 3&#45;&gt;2 -->
<g id="edge4" class="edge">
<title>3&#45;&gt;2</title>
<path fill="none" stroke="grey" stroke-width="2" d="M777.17,-1455.58C1080.28,-1450.3 1884.4,-1425.84 1884.4,-1315 1884.4,-1315 1884.4,-1315 1884.4,-305 1884.4,-233.93 827.36,-183.03 467.62,-167.76"/>
<polygon fill="grey" stroke="grey" stroke-width="2" points="467.76,-164.27 457.63,-167.34 467.47,-171.26 467.76,-164.27"/>
</g>
<!-- 11 -->
<g id="node12" class="node">
<title>11</title>
<path fill="none" stroke="#70d856" stroke-width="2" d="M687.4,-1404C687.4,-1404 367.4,-1404 367.4,-1404 361.4,-1404 355.4,-1398 355.4,-1392 355.4,-1392 355.4,-1380 355.4,-1380 355.4,-1374 361.4,-1368 367.4,-1368 367.4,-1368 687.4,-1368 687.4,-1368 693.4,-1368 699.4,-1374 699.4,-1380 699.4,-1380 699.4,-1392 699.4,-1392 699.4,-1398 693.4,-1404 687.4,-1404"/>
<text text-anchor="middle" x="527.4" y="-1383.5" font-family="sans" font-size="10.00">drop_duplicates_and_define_regions_and_names_assembly_numts</text>
</g>
<!-- 3&#45;&gt;11 -->
<g id="edge25" class="edge">
<title>3&#45;&gt;11</title>
<path fill="none" stroke="grey" stroke-width="2" d="M628.73,-1439.15C611.94,-1430.52 591.56,-1420.02 573.48,-1410.72"/>
<polygon fill="grey" stroke="grey" stroke-width="2" points="575.19,-1407.66 564.69,-1406.2 571.98,-1413.89 575.19,-1407.66"/>
</g>
<!-- 4 -->
<g id="node5" class="node">
<title>4</title>
<path fill="none" stroke="#9fd856" stroke-width="2" d="M261.9,-324C261.9,-324 88.9,-324 88.9,-324 82.9,-324 76.9,-318 76.9,-312 76.9,-312 76.9,-300 76.9,-300 76.9,-294 82.9,-288 88.9,-288 88.9,-288 261.9,-288 261.9,-288 267.9,-288 273.9,-294 273.9,-300 273.9,-300 273.9,-312 273.9,-312 273.9,-318 267.9,-324 261.9,-324"/>
<text text-anchor="middle" x="175.4" y="-303.5" font-family="sans" font-size="10.00">align_mtc_to_additional_seqs_lastdb</text>
</g>
<!-- 4&#45;&gt;2 -->
<g id="edge5" class="edge">
<title>4&#45;&gt;2</title>
<path fill="none" stroke="grey" stroke-width="2" d="M216.09,-287.2C234.57,-278.1 256.1,-265.99 273.4,-252 295.19,-234.38 315.56,-209.91 329.72,-191.09"/>
<polygon fill="grey" stroke="grey" stroke-width="2" points="332.42,-193.33 335.51,-183.19 326.77,-189.19 332.42,-193.33"/>
</g>
<!-- 38 -->
<g id="node39" class="node">
<title>38</title>
<path fill="none" stroke="#d8ac56" stroke-width="2" d="M252.4,-252C252.4,-252 98.4,-252 98.4,-252 92.4,-252 86.4,-246 86.4,-240 86.4,-240 86.4,-228 86.4,-228 86.4,-222 92.4,-216 98.4,-216 98.4,-216 252.4,-216 252.4,-216 258.4,-216 264.4,-222 264.4,-228 264.4,-228 264.4,-240 264.4,-240 264.4,-246 258.4,-252 252.4,-252"/>
<text text-anchor="middle" x="175.4" y="-231.5" font-family="sans" font-size="10.00">additional_seqs_maf_to_blasttab</text>
</g>
<!-- 4&#45;&gt;38 -->
<g id="edge71" class="edge">
<title>4&#45;&gt;38</title>
<path fill="none" stroke="grey" stroke-width="2" d="M175.4,-287.34C175.4,-280.75 175.4,-273.08 175.4,-265.67"/>
<polygon fill="grey" stroke="grey" stroke-width="2" points="178.9,-265.93 175.4,-255.93 171.9,-265.93 178.9,-265.93"/>
</g>
<!-- 5 -->
<g id="node6" class="node">
<title>5</title>
<path fill="none" stroke="#56d8c9" stroke-width="2" d="M220.4,-396C220.4,-396 140.4,-396 140.4,-396 134.4,-396 128.4,-390 128.4,-384 128.4,-384 128.4,-372 128.4,-372 128.4,-366 134.4,-360 140.4,-360 140.4,-360 220.4,-360 220.4,-360 226.4,-360 232.4,-366 232.4,-372 232.4,-372 232.4,-384 232.4,-384 232.4,-390 226.4,-396 220.4,-396"/>
<text text-anchor="middle" x="180.4" y="-375.5" font-family="sans" font-size="10.00">lastdb_sequences</text>
</g>
<!-- 5&#45;&gt;4 -->
<g id="edge11" class="edge">
<title>5&#45;&gt;4</title>
<path fill="none" stroke="grey" stroke-width="2" d="M179.13,-359.34C178.66,-352.75 178.12,-345.08 177.59,-337.67"/>
<polygon fill="grey" stroke="grey" stroke-width="2" points="181.09,-337.65 176.89,-327.92 174.11,-338.15 181.09,-337.65"/>
</g>
<!-- 6 -->
<g id="node7" class="node">
<title>6</title>
<path fill="none" stroke="#56c9d8" stroke-width="2" d="M289.9,-468C289.9,-468 80.9,-468 80.9,-468 74.9,-468 68.9,-462 68.9,-456 68.9,-456 68.9,-444 68.9,-444 68.9,-438 74.9,-432 80.9,-432 80.9,-432 289.9,-432 289.9,-432 295.9,-432 301.9,-438 301.9,-444 301.9,-444 301.9,-456 301.9,-456 301.9,-462 295.9,-468 289.9,-468"/>
<text text-anchor="middle" x="185.4" y="-447.5" font-family="sans" font-size="10.00">get_additional_compatible_sequences_fasta</text>
</g>
<!-- 6&#45;&gt;5 -->
<g id="edge12" class="edge">
<title>6&#45;&gt;5</title>
<path fill="none" stroke="grey" stroke-width="2" d="M184.13,-431.34C183.66,-424.75 183.12,-417.08 182.59,-409.67"/>
<polygon fill="grey" stroke="grey" stroke-width="2" points="186.09,-409.65 181.89,-399.92 179.11,-410.15 186.09,-409.65"/>
</g>
<!-- 7 -->
<g id="node8" class="node">
<title>7</title>
<path fill="none" stroke="#d88556" stroke-width="2" d="M327.9,-540C327.9,-540 124.9,-540 124.9,-540 118.9,-540 112.9,-534 112.9,-528 112.9,-528 112.9,-516 112.9,-516 112.9,-510 118.9,-504 124.9,-504 124.9,-504 327.9,-504 327.9,-504 333.9,-504 339.9,-510 339.9,-516 339.9,-516 339.9,-528 339.9,-528 339.9,-534 333.9,-540 327.9,-540"/>
<text text-anchor="middle" x="226.4" y="-519.5" font-family="sans" font-size="10.00">get_additional_compatible_sequences_bed</text>
</g>
<!-- 7&#45;&gt;2 -->
<g id="edge6" class="edge">
<title>7&#45;&gt;2</title>
<path fill="none" stroke="grey" stroke-width="2" d="M268.26,-503.12C283.65,-494.59 299.86,-482.93 310.4,-468 333.77,-434.87 330.4,-419.54 330.4,-379 330.4,-379 330.4,-379 330.4,-305 330.4,-266.31 337.41,-222.21 342.92,-193.56"/>
<polygon fill="grey" stroke="grey" stroke-width="2" points="346.34,-194.29 344.87,-183.8 339.48,-192.92 346.34,-194.29"/>
</g>
<!-- 7&#45;&gt;6 -->
<g id="edge13" class="edge">
<title>7&#45;&gt;6</title>
<path fill="none" stroke="grey" stroke-width="2" d="M216.05,-503.34C211.91,-496.26 207.02,-487.92 202.38,-480"/>
<polygon fill="grey" stroke="grey" stroke-width="2" points="205.49,-478.37 197.41,-471.51 199.45,-481.91 205.49,-478.37"/>
</g>
<!-- 8 -->
<g id="node9" class="node">
<title>8</title>
<path fill="none" stroke="#56d873" stroke-width="2" d="M550.4,-612C550.4,-612 470.4,-612 470.4,-612 464.4,-612 458.4,-606 458.4,-600 458.4,-600 458.4,-588 458.4,-588 458.4,-582 464.4,-576 470.4,-576 470.4,-576 550.4,-576 550.4,-576 556.4,-576 562.4,-582 562.4,-588 562.4,-588 562.4,-600 562.4,-600 562.4,-606 556.4,-612 550.4,-612"/>
<text text-anchor="middle" x="510.4" y="-591.5" font-family="sans" font-size="10.00">update_all_numts</text>
</g>
<!-- 8&#45;&gt;7 -->
<g id="edge14" class="edge">
<title>8&#45;&gt;7</title>
<path fill="none" stroke="grey" stroke-width="2" d="M457.64,-580C416.71,-569.91 359.13,-555.72 311.67,-544.02"/>
<polygon fill="grey" stroke="grey" stroke-width="2" points="312.69,-540.67 302.15,-541.67 311.02,-547.46 312.69,-540.67"/>
</g>
<!-- 39 -->
<g id="node40" class="node">
<title>39</title>
<path fill="none" stroke="#5692d8" stroke-width="2" d="M557.9,-468C557.9,-468 448.9,-468 448.9,-468 442.9,-468 436.9,-462 436.9,-456 436.9,-456 436.9,-444 436.9,-444 436.9,-438 442.9,-432 448.9,-432 448.9,-432 557.9,-432 557.9,-432 563.9,-432 569.9,-438 569.9,-444 569.9,-444 569.9,-456 569.9,-456 569.9,-462 563.9,-468 557.9,-468"/>
<text text-anchor="middle" x="503.4" y="-447.5" font-family="sans" font-size="10.00">get_orthologous_matrix</text>
</g>
<!-- 8&#45;&gt;39 -->
<g id="edge72" class="edge">
<title>8&#45;&gt;39</title>
<path fill="none" stroke="grey" stroke-width="2" d="M509.51,-575.02C508.35,-551.54 506.31,-510.11 504.91,-481.64"/>
<polygon fill="grey" stroke="grey" stroke-width="2" points="508.41,-481.68 504.42,-471.86 501.42,-482.02 508.41,-481.68"/>
</g>
<!-- 9 -->
<g id="node10" class="node">
<title>9</title>
<path fill="none" stroke="#56d0d8" stroke-width="2" d="M734.9,-972C734.9,-972 625.9,-972 625.9,-972 619.9,-972 613.9,-966 613.9,-960 613.9,-960 613.9,-948 613.9,-948 613.9,-942 619.9,-936 625.9,-936 625.9,-936 734.9,-936 734.9,-936 740.9,-936 746.9,-942 746.9,-948 746.9,-948 746.9,-960 746.9,-960 746.9,-966 740.9,-972 734.9,-972"/>
<text text-anchor="middle" x="680.4" y="-951.5" font-family="sans" font-size="10.00">merge_all_comparisons</text>
</g>
<!-- 9&#45;&gt;8 -->
<g id="edge16" class="edge">
<title>9&#45;&gt;8</title>
<path fill="none" stroke="grey" stroke-width="2" d="M718.55,-935.09C760.31,-912.54 821.4,-869.54 821.4,-811 821.4,-811 821.4,-811 821.4,-737 821.4,-630.08 667.4,-603.32 576.14,-596.85"/>
<polygon fill="grey" stroke="grey" stroke-width="2" points="576.37,-593.36 566.17,-596.23 575.94,-600.35 576.37,-593.36"/>
</g>
<!-- 35 -->
<g id="node36" class="node">
<title>35</title>
<path fill="none" stroke="#d6d856" stroke-width="2" d="M741.4,-900C741.4,-900 587.4,-900 587.4,-900 581.4,-900 575.4,-894 575.4,-888 575.4,-888 575.4,-876 575.4,-876 575.4,-870 581.4,-864 587.4,-864 587.4,-864 741.4,-864 741.4,-864 747.4,-864 753.4,-870 753.4,-876 753.4,-876 753.4,-888 753.4,-888 753.4,-894 747.4,-900 741.4,-900"/>
<text text-anchor="middle" x="664.4" y="-879.5" font-family="sans" font-size="10.00">get_new_reference_numt_coords</text>
</g>
<!-- 9&#45;&gt;35 -->
<g id="edge67" class="edge">
<title>9&#45;&gt;35</title>
<path fill="none" stroke="grey" stroke-width="2" d="M676.36,-935.34C674.84,-928.67 673.06,-920.89 671.34,-913.39"/>
<polygon fill="grey" stroke="grey" stroke-width="2" points="674.8,-912.82 669.16,-903.85 667.98,-914.38 674.8,-912.82"/>
</g>
<!-- 10 -->
<g id="node11" class="node">
<title>10</title>
<path fill="none" stroke="#d8d356" stroke-width="2" d="M784.4,-1044C784.4,-1044 608.4,-1044 608.4,-1044 602.4,-1044 596.4,-1038 596.4,-1032 596.4,-1032 596.4,-1020 596.4,-1020 596.4,-1014 602.4,-1008 608.4,-1008 608.4,-1008 784.4,-1008 784.4,-1008 790.4,-1008 796.4,-1014 796.4,-1020 796.4,-1020 796.4,-1032 796.4,-1032 796.4,-1038 790.4,-1044 784.4,-1044"/>
<text text-anchor="middle" x="696.4" y="-1023.5" font-family="sans" font-size="10.00">merge_comparisons_forward_reverse</text>
</g>
<!-- 10&#45;&gt;9 -->
<g id="edge18" class="edge">
<title>10&#45;&gt;9</title>
<path fill="none" stroke="grey" stroke-width="2" d="M692.36,-1007.34C690.84,-1000.67 689.06,-992.89 687.34,-985.39"/>
<polygon fill="grey" stroke="grey" stroke-width="2" points="690.8,-984.82 685.16,-975.85 683.98,-986.38 690.8,-984.82"/>
</g>
<!-- 11&#45;&gt;2 -->
<g id="edge7" class="edge">
<title>11&#45;&gt;2</title>
<path fill="none" stroke="grey" stroke-width="2" d="M395.72,-1367.05C370.3,-1359.22 345.16,-1348.02 324.4,-1332 288.48,-1304.28 274.4,-1288.37 274.4,-1243 274.4,-1243 274.4,-1243 274.4,-881 274.4,-685.38 368.4,-646.62 368.4,-451 368.4,-451 368.4,-451 368.4,-305 368.4,-266.31 361.38,-222.21 355.88,-193.56"/>
<polygon fill="grey" stroke="grey" stroke-width="2" points="359.32,-192.92 353.93,-183.8 352.45,-194.29 359.32,-192.92"/>
</g>
<!-- 11&#45;&gt;9 -->
<g id="edge17" class="edge">
<title>11&#45;&gt;9</title>
<path fill="none" stroke="grey" stroke-width="2" d="M434.67,-1367.1C410.36,-1359.23 385.38,-1347.99 365.4,-1332 329.45,-1303.23 312.4,-1289.04 312.4,-1243 312.4,-1243 312.4,-1243 312.4,-1097 312.4,-1035.74 492.15,-990.75 600.39,-969.21"/>
<polygon fill="grey" stroke="grey" stroke-width="2" points="600.79,-972.7 609.93,-967.34 599.44,-965.83 600.79,-972.7"/>
</g>
<!-- 11&#45;&gt;10 -->
<g id="edge22" class="edge">
<title>11&#45;&gt;10</title>
<path fill="none" stroke="grey" stroke-width="2" d="M472.36,-1367.05C420.4,-1346.24 350.4,-1306.43 350.4,-1243 350.4,-1243 350.4,-1243 350.4,-1169 350.4,-1125.99 354.65,-1106.67 388.4,-1080 418.22,-1056.43 507.7,-1042.78 582.57,-1035.25"/>
<polygon fill="grey" stroke="grey" stroke-width="2" points="582.78,-1038.75 592.39,-1034.3 582.1,-1031.78 582.78,-1038.75"/>
</g>
<!-- 20 -->
<g id="node21" class="node">
<title>20</title>
<path fill="none" stroke="#56d863" stroke-width="2" d="M535.4,-1116C535.4,-1116 409.4,-1116 409.4,-1116 403.4,-1116 397.4,-1110 397.4,-1104 397.4,-1104 397.4,-1092 397.4,-1092 397.4,-1086 403.4,-1080 409.4,-1080 409.4,-1080 535.4,-1080 535.4,-1080 541.4,-1080 547.4,-1086 547.4,-1092 547.4,-1092 547.4,-1104 547.4,-1104 547.4,-1110 541.4,-1116 535.4,-1116"/>
<text text-anchor="middle" x="472.4" y="-1095.5" font-family="sans" font-size="10.00">reference_in_other_reverse</text>
</g>
<!-- 11&#45;&gt;20 -->
<g id="edge39" class="edge">
<title>11&#45;&gt;20</title>
<path fill="none" stroke="grey" stroke-width="2" d="M506.21,-1367.3C481.56,-1345.17 442.2,-1304.72 426.4,-1260 421.26,-1245.47 421.23,-1171.02 428.4,-1152 431.87,-1142.77 437.68,-1133.98 443.95,-1126.31"/>
<polygon fill="grey" stroke="grey" stroke-width="2" points="446.55,-1128.66 450.6,-1118.87 441.33,-1123.99 446.55,-1128.66"/>
</g>
<!-- 22 -->
<g id="node23" class="node">
<title>22</title>
<path fill="none" stroke="#b6d856" stroke-width="2" d="M1092.4,-1332C1092.4,-1332 972.4,-1332 972.4,-1332 966.4,-1332 960.4,-1326 960.4,-1320 960.4,-1320 960.4,-1308 960.4,-1308 960.4,-1302 966.4,-1296 972.4,-1296 972.4,-1296 1092.4,-1296 1092.4,-1296 1098.4,-1296 1104.4,-1302 1104.4,-1308 1104.4,-1308 1104.4,-1320 1104.4,-1320 1104.4,-1326 1098.4,-1332 1092.4,-1332"/>
<text text-anchor="middle" x="1032.4" y="-1311.5" font-family="sans" font-size="10.00">prepare_numt_region_bed</text>
</g>
<!-- 11&#45;&gt;22 -->
<g id="edge43" class="edge">
<title>11&#45;&gt;22</title>
<path fill="none" stroke="grey" stroke-width="2" d="M657.12,-1367.02C748.19,-1354.39 867.44,-1337.87 946.82,-1326.86"/>
<polygon fill="grey" stroke="grey" stroke-width="2" points="947.27,-1330.33 956.69,-1325.49 946.31,-1323.4 947.27,-1330.33"/>
</g>
<!-- 25 -->
<g id="node26" class="node">
<title>25</title>
<path fill="none" stroke="#d87d56" stroke-width="2" d="M770.4,-1116C770.4,-1116 686.4,-1116 686.4,-1116 680.4,-1116 674.4,-1110 674.4,-1104 674.4,-1104 674.4,-1092 674.4,-1092 674.4,-1086 680.4,-1080 686.4,-1080 686.4,-1080 770.4,-1080 770.4,-1080 776.4,-1080 782.4,-1086 782.4,-1092 782.4,-1092 782.4,-1104 782.4,-1104 782.4,-1110 776.4,-1116 770.4,-1116"/>
<text text-anchor="middle" x="728.4" y="-1095.5" font-family="sans" font-size="10.00">reference_in_other</text>
</g>
<!-- 11&#45;&gt;25 -->
<g id="edge48" class="edge">
<title>11&#45;&gt;25</title>
<path fill="none" stroke="grey" stroke-width="2" d="M572.82,-1367.05C615.71,-1347.53 677.99,-1312.01 709.4,-1260 733.56,-1219.98 734.37,-1164.11 731.95,-1129.81"/>
<polygon fill="grey" stroke="grey" stroke-width="2" points="735.45,-1129.62 731.09,-1119.97 728.48,-1130.24 735.45,-1129.62"/>
</g>
<!-- 26 -->
<g id="node27" class="node">
<title>26</title>
<path fill="none" stroke="#97d856" stroke-width="2" d="M1195.4,-1116C1195.4,-1116 1069.4,-1116 1069.4,-1116 1063.4,-1116 1057.4,-1110 1057.4,-1104 1057.4,-1104 1057.4,-1092 1057.4,-1092 1057.4,-1086 1063.4,-1080 1069.4,-1080 1069.4,-1080 1195.4,-1080 1195.4,-1080 1201.4,-1080 1207.4,-1086 1207.4,-1092 1207.4,-1092 1207.4,-1104 1207.4,-1104 1207.4,-1110 1201.4,-1116 1195.4,-1116"/>
<text text-anchor="middle" x="1132.4" y="-1095.5" font-family="sans" font-size="10.00">other_in_reference_reverse</text>
</g>
<!-- 11&#45;&gt;26 -->
<g id="edge52" class="edge">
<title>11&#45;&gt;26</title>
<path fill="none" stroke="grey" stroke-width="2" d="M700.3,-1380.49C862.57,-1374.49 1084.61,-1361.04 1113.4,-1332 1140.91,-1304.24 1137.78,-1186.35 1134.54,-1129.67"/>
<polygon fill="grey" stroke="grey" stroke-width="2" points="1138.05,-1129.77 1133.94,-1120.01 1131.07,-1130.2 1138.05,-1129.77"/>
</g>
<!-- 30 -->
<g id="node31" class="node">
<title>30</title>
<path fill="none" stroke="#afd856" stroke-width="2" d="M1678.4,-1116C1678.4,-1116 1594.4,-1116 1594.4,-1116 1588.4,-1116 1582.4,-1110 1582.4,-1104 1582.4,-1104 1582.4,-1092 1582.4,-1092 1582.4,-1086 1588.4,-1080 1594.4,-1080 1594.4,-1080 1678.4,-1080 1678.4,-1080 1684.4,-1080 1690.4,-1086 1690.4,-1092 1690.4,-1092 1690.4,-1104 1690.4,-1104 1690.4,-1110 1684.4,-1116 1678.4,-1116"/>
<text text-anchor="middle" x="1636.4" y="-1095.5" font-family="sans" font-size="10.00">other_in_reference</text>
</g>
<!-- 11&#45;&gt;30 -->
<g id="edge59" class="edge">
<title>11&#45;&gt;30</title>
<path fill="none" stroke="grey" stroke-width="2" d="M700.26,-1380.85C1033.09,-1371.07 1736.64,-1340.95 1809.4,-1260 1838.03,-1228.15 1780.13,-1158.98 1772.4,-1152 1753.09,-1134.58 1727.41,-1122.62 1703.56,-1114.52"/>
<polygon fill="grey" stroke="grey" stroke-width="2" points="1704.78,-1111.24 1694.19,-1111.55 1702.67,-1117.91 1704.78,-1111.24"/>
</g>
<!-- 12 -->
<g id="node13" class="node">
<title>12</title>
<path fill="none" stroke="#56b9d8" stroke-width="2" d="M506.9,-1476C506.9,-1476 273.9,-1476 273.9,-1476 267.9,-1476 261.9,-1470 261.9,-1464 261.9,-1464 261.9,-1452 261.9,-1452 261.9,-1446 267.9,-1440 273.9,-1440 273.9,-1440 506.9,-1440 506.9,-1440 512.9,-1440 518.9,-1446 518.9,-1452 518.9,-1452 518.9,-1464 518.9,-1464 518.9,-1470 512.9,-1476 506.9,-1476"/>
<text text-anchor="middle" x="390.4" y="-1455.5" font-family="sans" font-size="10.00">replace_in_linear_df_with_alignments_over_edge</text>
</g>
<!-- 12&#45;&gt;11 -->
<g id="edge24" class="edge">
<title>12&#45;&gt;11</title>
<path fill="none" stroke="grey" stroke-width="2" d="M425.32,-1439.15C442.23,-1430.52 462.76,-1420.02 480.97,-1410.72"/>
<polygon fill="grey" stroke="grey" stroke-width="2" points="482.53,-1413.86 489.84,-1406.19 479.34,-1407.62 482.53,-1413.86"/>
</g>
<!-- 13 -->
<g id="node14" class="node">
<title>13</title>
<path fill="none" stroke="#56d892" stroke-width="2" d="M500.4,-1620C500.4,-1620 384.4,-1620 384.4,-1620 378.4,-1620 372.4,-1614 372.4,-1608 372.4,-1608 372.4,-1596 372.4,-1596 372.4,-1590 378.4,-1584 384.4,-1584 384.4,-1584 500.4,-1584 500.4,-1584 506.4,-1584 512.4,-1590 512.4,-1596 512.4,-1596 512.4,-1608 512.4,-1608 512.4,-1614 506.4,-1620 500.4,-1620"/>
<text text-anchor="middle" x="442.4" y="-1599.5" font-family="sans" font-size="10.00">align_circular_mtgenome</text>
</g>
<!-- 13&#45;&gt;12 -->
<g id="edge26" class="edge">
<title>13&#45;&gt;12</title>
<path fill="none" stroke="grey" stroke-width="2" d="M446.58,-1583.17C450.03,-1564.62 452.98,-1535.13 443.4,-1512 439.37,-1502.28 432.6,-1493.41 425.22,-1485.83"/>
<polygon fill="grey" stroke="grey" stroke-width="2" points="427.62,-1483.28 417.92,-1479.01 422.84,-1488.39 427.62,-1483.28"/>
</g>
<!-- 18 -->
<g id="node19" class="node">
<title>18</title>
<path fill="none" stroke="#56a2d8" stroke-width="2" d="M422.4,-1548C422.4,-1548 308.4,-1548 308.4,-1548 302.4,-1548 296.4,-1542 296.4,-1536 296.4,-1536 296.4,-1524 296.4,-1524 296.4,-1518 302.4,-1512 308.4,-1512 308.4,-1512 422.4,-1512 422.4,-1512 428.4,-1512 434.4,-1518 434.4,-1524 434.4,-1524 434.4,-1536 434.4,-1536 434.4,-1542 428.4,-1548 422.4,-1548"/>
<text text-anchor="middle" x="365.4" y="-1527.5" font-family="sans" font-size="10.00">convert_maf_to_blasttab</text>
</g>
<!-- 13&#45;&gt;18 -->
<g id="edge34" class="edge">
<title>13&#45;&gt;18</title>
<path fill="none" stroke="grey" stroke-width="2" d="M422.97,-1583.34C414.37,-1575.52 404.07,-1566.16 394.58,-1557.53"/>
<polygon fill="grey" stroke="grey" stroke-width="2" points="397.08,-1555.07 387.33,-1550.94 392.37,-1560.25 397.08,-1555.07"/>
</g>
<!-- 14 -->
<g id="node15" class="node">
<title>14</title>
<path fill="none" stroke="#d89556" stroke-width="2" d="M476.4,-1692C476.4,-1692 308.4,-1692 308.4,-1692 302.4,-1692 296.4,-1686 296.4,-1680 296.4,-1680 296.4,-1668 296.4,-1668 296.4,-1662 302.4,-1656 308.4,-1656 308.4,-1656 476.4,-1656 476.4,-1656 482.4,-1656 488.4,-1662 488.4,-1668 488.4,-1668 488.4,-1680 488.4,-1680 488.4,-1686 482.4,-1692 476.4,-1692"/>
<text text-anchor="middle" x="392.4" y="-1671.5" font-family="sans" font-size="10.00">circularize_consensus_mtc_genome</text>
</g>
<!-- 14&#45;&gt;13 -->
<g id="edge30" class="edge">
<title>14&#45;&gt;13</title>
<path fill="none" stroke="grey" stroke-width="2" d="M405.01,-1655.34C410.18,-1648.1 416.3,-1639.53 422.07,-1631.45"/>
<polygon fill="grey" stroke="grey" stroke-width="2" points="424.89,-1633.54 427.85,-1623.37 419.19,-1629.47 424.89,-1633.54"/>
</g>
<!-- 15 -->
<g id="node16" class="node">
<title>15</title>
<path fill="none" stroke="#d8bc56" stroke-width="2" d="M355.9,-1764C355.9,-1764 180.9,-1764 180.9,-1764 174.9,-1764 168.9,-1758 168.9,-1752 168.9,-1752 168.9,-1740 168.9,-1740 168.9,-1734 174.9,-1728 180.9,-1728 180.9,-1728 355.9,-1728 355.9,-1728 361.9,-1728 367.9,-1734 367.9,-1740 367.9,-1740 367.9,-1752 367.9,-1752 367.9,-1758 361.9,-1764 355.9,-1764"/>
<text text-anchor="middle" x="268.4" y="-1743.5" font-family="sans" font-size="10.00">consensus_sus_scrofa_mtc_genomes</text>
</g>
<!-- 15&#45;&gt;4 -->
<g id="edge9" class="edge">
<title>15&#45;&gt;4</title>
<path fill="none" stroke="grey" stroke-width="2" d="M168.05,-1734.57C109.11,-1726.39 42.2,-1712.83 21.4,-1692 -7.19,-1663.38 2.4,-1643.45 2.4,-1603 2.4,-1603 2.4,-1603 2.4,-449 2.4,-402.73 21.68,-390.58 56.4,-360 70.46,-347.61 87.89,-337.69 105.03,-329.93"/>
<polygon fill="grey" stroke="grey" stroke-width="2" points="106.2,-333.24 114.02,-326.1 103.45,-326.8 106.2,-333.24"/>
</g>
<!-- 15&#45;&gt;14 -->
<g id="edge31" class="edge">
<title>15&#45;&gt;14</title>
<path fill="none" stroke="grey" stroke-width="2" d="M300.01,-1727.15C315.17,-1718.6 333.54,-1708.22 349.9,-1698.99"/>
<polygon fill="grey" stroke="grey" stroke-width="2" points="351.22,-1702.26 358.21,-1694.3 347.78,-1696.17 351.22,-1702.26"/>
</g>
<!-- 19 -->
<g id="node20" class="node">
<title>19</title>
<path fill="none" stroke="#56d87b" stroke-width="2" d="M322.4,-1620C322.4,-1620 214.4,-1620 214.4,-1620 208.4,-1620 202.4,-1614 202.4,-1608 202.4,-1608 202.4,-1596 202.4,-1596 202.4,-1590 208.4,-1584 214.4,-1584 214.4,-1584 322.4,-1584 322.4,-1584 328.4,-1584 334.4,-1590 334.4,-1596 334.4,-1596 334.4,-1608 334.4,-1608 334.4,-1614 328.4,-1620 322.4,-1620"/>
<text text-anchor="middle" x="268.4" y="-1599.5" font-family="sans" font-size="10.00">align_linear_mtgenome</text>
</g>
<!-- 15&#45;&gt;19 -->
<g id="edge36" class="edge">
<title>15&#45;&gt;19</title>
<path fill="none" stroke="grey" stroke-width="2" d="M268.4,-1727.02C268.4,-1703.54 268.4,-1662.11 268.4,-1633.64"/>
<polygon fill="grey" stroke="grey" stroke-width="2" points="271.9,-1633.87 268.4,-1623.87 264.9,-1633.87 271.9,-1633.87"/>
</g>
<!-- 16 -->
<g id="node17" class="node">
<title>16</title>
<path fill="none" stroke="#568ad8" stroke-width="2" d="M342.4,-1836C342.4,-1836 194.4,-1836 194.4,-1836 188.4,-1836 182.4,-1830 182.4,-1824 182.4,-1824 182.4,-1812 182.4,-1812 182.4,-1806 188.4,-1800 194.4,-1800 194.4,-1800 342.4,-1800 342.4,-1800 348.4,-1800 354.4,-1806 354.4,-1812 354.4,-1812 354.4,-1824 354.4,-1824 354.4,-1830 348.4,-1836 342.4,-1836"/>
<text text-anchor="middle" x="268.4" y="-1815.5" font-family="sans" font-size="10.00">align_sus_scrofa_mtc_genomes</text>
</g>
<!-- 16&#45;&gt;15 -->
<g id="edge32" class="edge">
<title>16&#45;&gt;15</title>
<path fill="none" stroke="grey" stroke-width="2" d="M268.4,-1799.34C268.4,-1792.75 268.4,-1785.08 268.4,-1777.67"/>
<polygon fill="grey" stroke="grey" stroke-width="2" points="271.9,-1777.93 268.4,-1767.93 264.9,-1777.93 271.9,-1777.93"/>
</g>
<!-- 17 -->
<g id="node18" class="node">
<title>17</title>
<path fill="none" stroke="#5673d8" stroke-width="2" d="M346.4,-1908C346.4,-1908 190.4,-1908 190.4,-1908 184.4,-1908 178.4,-1902 178.4,-1896 178.4,-1896 178.4,-1884 178.4,-1884 178.4,-1878 184.4,-1872 190.4,-1872 190.4,-1872 346.4,-1872 346.4,-1872 352.4,-1872 358.4,-1878 358.4,-1884 358.4,-1884 358.4,-1896 358.4,-1896 358.4,-1902 352.4,-1908 346.4,-1908"/>
<text text-anchor="middle" x="268.4" y="-1887.5" font-family="sans" font-size="10.00">concat_sus_scrofa_mtc_genomes</text>
</g>
<!-- 17&#45;&gt;16 -->
<g id="edge33" class="edge">
<title>17&#45;&gt;16</title>
<path fill="none" stroke="grey" stroke-width="2" d="M268.4,-1871.34C268.4,-1864.75 268.4,-1857.08 268.4,-1849.67"/>
<polygon fill="grey" stroke="grey" stroke-width="2" points="271.9,-1849.93 268.4,-1839.93 264.9,-1849.93 271.9,-1849.93"/>
</g>
<!-- 18&#45;&gt;12 -->
<g id="edge27" class="edge">
<title>18&#45;&gt;12</title>
<path fill="none" stroke="grey" stroke-width="2" d="M371.7,-1511.34C374.11,-1504.59 376.93,-1496.69 379.64,-1489.11"/>
<polygon fill="grey" stroke="grey" stroke-width="2" points="382.92,-1490.35 382.98,-1479.75 376.33,-1487.99 382.92,-1490.35"/>
</g>
<!-- 19&#45;&gt;12 -->
<g id="edge28" class="edge">
<title>19&#45;&gt;12</title>
<path fill="none" stroke="grey" stroke-width="2" d="M267.89,-1583.11C268.24,-1563.69 271.56,-1532.71 287.4,-1512 296.7,-1499.83 309.59,-1490.21 323.1,-1482.7"/>
<polygon fill="grey" stroke="grey" stroke-width="2" points="324.52,-1485.91 331.84,-1478.26 321.34,-1479.67 324.52,-1485.91"/>
</g>
<!-- 19&#45;&gt;18 -->
<g id="edge35" class="edge">
<title>19&#45;&gt;18</title>
<path fill="none" stroke="grey" stroke-width="2" d="M293.12,-1583.15C304.41,-1575.01 317.98,-1565.22 330.3,-1556.33"/>
<polygon fill="grey" stroke="grey" stroke-width="2" points="332.2,-1559.27 338.26,-1550.58 328.1,-1553.6 332.2,-1559.27"/>
</g>
<!-- 20&#45;&gt;10 -->
<g id="edge23" class="edge">
<title>20&#45;&gt;10</title>
<path fill="none" stroke="grey" stroke-width="2" d="M529.79,-1079.06C559.43,-1069.8 595.82,-1058.43 627.03,-1048.68"/>
<polygon fill="grey" stroke="grey" stroke-width="2" points="627.76,-1052.12 636.26,-1045.79 625.67,-1045.43 627.76,-1052.12"/>
</g>
<!-- 21 -->
<g id="node22" class="node">
<title>21</title>
<path fill="none" stroke="#56d8b9" stroke-width="2" d="M688.4,-1260C688.4,-1260 466.4,-1260 466.4,-1260 460.4,-1260 454.4,-1254 454.4,-1248 454.4,-1248 454.4,-1236 454.4,-1236 454.4,-1230 460.4,-1224 466.4,-1224 466.4,-1224 688.4,-1224 688.4,-1224 694.4,-1224 700.4,-1230 700.4,-1236 700.4,-1236 700.4,-1248 700.4,-1248 700.4,-1254 694.4,-1260 688.4,-1260"/>
<text text-anchor="middle" x="577.4" y="-1239.5" font-family="sans" font-size="10.00">maf_cut_extract_numt_region_from_alignment</text>
</g>
<!-- 21&#45;&gt;20 -->
<g id="edge38" class="edge">
<title>21&#45;&gt;20</title>
<path fill="none" stroke="grey" stroke-width="2" d="M534.01,-1223.14C518.39,-1214.67 502.01,-1203.05 491.4,-1188 479.42,-1171.03 474.73,-1148.01 473.01,-1129.64"/>
<polygon fill="grey" stroke="grey" stroke-width="2" points="476.5,-1129.45 472.38,-1119.69 469.52,-1129.89 476.5,-1129.45"/>
</g>
<!-- 23 -->
<g id="node24" class="node">
<title>23</title>
<path fill="none" stroke="#59d856" stroke-width="2" d="M688.4,-1188C688.4,-1188 512.4,-1188 512.4,-1188 506.4,-1188 500.4,-1182 500.4,-1176 500.4,-1176 500.4,-1164 500.4,-1164 500.4,-1158 506.4,-1152 512.4,-1152 512.4,-1152 688.4,-1152 688.4,-1152 694.4,-1152 700.4,-1158 700.4,-1164 700.4,-1164 700.4,-1176 700.4,-1176 700.4,-1182 694.4,-1188 688.4,-1188"/>
<text text-anchor="middle" x="600.4" y="-1167.5" font-family="sans" font-size="10.00">convert_cut_regions_maf_to_blasttab</text>
</g>
<!-- 21&#45;&gt;23 -->
<g id="edge44" class="edge">
<title>21&#45;&gt;23</title>
<path fill="none" stroke="grey" stroke-width="2" d="M583.2,-1223.34C585.42,-1216.59 588.01,-1208.69 590.5,-1201.11"/>
<polygon fill="grey" stroke="grey" stroke-width="2" points="593.77,-1202.37 593.57,-1191.78 587.12,-1200.19 593.77,-1202.37"/>
</g>
<!-- 22&#45;&gt;20 -->
<g id="edge41" class="edge">
<title>22&#45;&gt;20</title>
<path fill="none" stroke="grey" stroke-width="2" d="M959.5,-1311.8C809.93,-1308.58 479.46,-1297.27 445.4,-1260 412.5,-1224 436.02,-1163.67 454.98,-1127.97"/>
<polygon fill="grey" stroke="grey" stroke-width="2" points="457.87,-1129.97 459.67,-1119.53 451.76,-1126.57 457.87,-1129.97"/>
</g>
<!-- 22&#45;&gt;21 -->
<g id="edge42" class="edge">
<title>22&#45;&gt;21</title>
<path fill="none" stroke="grey" stroke-width="2" d="M959.55,-1301.79C891.68,-1291.35 788.94,-1275.55 707.08,-1262.95"/>
<polygon fill="grey" stroke="grey" stroke-width="2" points="707.8,-1259.52 697.38,-1261.46 706.73,-1266.44 707.8,-1259.52"/>
</g>
<!-- 24 -->
<g id="node25" class="node">
<title>24</title>
<path fill="none" stroke="#61d856" stroke-width="2" d="M1016.4,-1260C1016.4,-1260 768.4,-1260 768.4,-1260 762.4,-1260 756.4,-1254 756.4,-1248 756.4,-1248 756.4,-1236 756.4,-1236 756.4,-1230 762.4,-1224 768.4,-1224 768.4,-1224 1016.4,-1224 1016.4,-1224 1022.4,-1224 1028.4,-1230 1028.4,-1236 1028.4,-1236 1028.4,-1248 1028.4,-1248 1028.4,-1254 1022.4,-1260 1016.4,-1260"/>
<text text-anchor="middle" x="892.4" y="-1239.5" font-family="sans" font-size="10.00">maf_cut_extract_reference_regions_from_alignment</text>
</g>
<!-- 22&#45;&gt;24 -->
<g id="edge46" class="edge">
<title>22&#45;&gt;24</title>
<path fill="none" stroke="grey" stroke-width="2" d="M996.71,-1295.15C979.35,-1286.47 958.24,-1275.92 939.57,-1266.59"/>
<polygon fill="grey" stroke="grey" stroke-width="2" points="941.24,-1263.51 930.73,-1262.17 938.11,-1269.77 941.24,-1263.51"/>
</g>
<!-- 22&#45;&gt;25 -->
<g id="edge50" class="edge">
<title>22&#45;&gt;25</title>
<path fill="none" stroke="grey" stroke-width="2" d="M1039.25,-1295.28C1045.47,-1276.02 1051.67,-1245.17 1037.4,-1224 983.69,-1144.33 869.67,-1115.43 796.16,-1104.95"/>
<polygon fill="grey" stroke="grey" stroke-width="2" points="796.76,-1101.49 786.38,-1103.65 795.84,-1108.43 796.76,-1101.49"/>
</g>
<!-- 22&#45;&gt;26 -->
<g id="edge54" class="edge">
<title>22&#45;&gt;26</title>
<path fill="none" stroke="grey" stroke-width="2" d="M1046.97,-1295.11C1054.61,-1285.18 1063.73,-1272.36 1070.4,-1260 1093.9,-1216.44 1112.89,-1162.04 1123.4,-1128.94"/>
<polygon fill="grey" stroke="grey" stroke-width="2" points="1126.73,-1130.03 1126.36,-1119.44 1120.05,-1127.95 1126.73,-1130.03"/>
</g>
<!-- 27 -->
<g id="node28" class="node">
<title>27</title>
<path fill="none" stroke="#56d8d0" stroke-width="2" d="M1462.4,-1260C1462.4,-1260 1172.4,-1260 1172.4,-1260 1166.4,-1260 1160.4,-1254 1160.4,-1248 1160.4,-1248 1160.4,-1236 1160.4,-1236 1160.4,-1230 1166.4,-1224 1172.4,-1224 1172.4,-1224 1462.4,-1224 1462.4,-1224 1468.4,-1224 1474.4,-1230 1474.4,-1236 1474.4,-1236 1474.4,-1248 1474.4,-1248 1474.4,-1254 1468.4,-1260 1462.4,-1260"/>
<text text-anchor="middle" x="1317.4" y="-1239.5" font-family="sans" font-size="10.00">maf_cut_extract_reference_regions_from_reverse_alignment</text>
</g>
<!-- 22&#45;&gt;27 -->
<g id="edge55" class="edge">
<title>22&#45;&gt;27</title>
<path fill="none" stroke="grey" stroke-width="2" d="M1105.05,-1295.15C1143.68,-1285.67 1191.4,-1273.95 1231.81,-1264.02"/>
<polygon fill="grey" stroke="grey" stroke-width="2" points="1232.56,-1267.44 1241.44,-1261.66 1230.89,-1260.64 1232.56,-1267.44"/>
</g>
<!-- 29 -->
<g id="node30" class="node">
<title>29</title>
<path fill="none" stroke="#d8c356" stroke-width="2" d="M1768.4,-1260C1768.4,-1260 1504.4,-1260 1504.4,-1260 1498.4,-1260 1492.4,-1254 1492.4,-1248 1492.4,-1248 1492.4,-1236 1492.4,-1236 1492.4,-1230 1498.4,-1224 1504.4,-1224 1504.4,-1224 1768.4,-1224 1768.4,-1224 1774.4,-1224 1780.4,-1230 1780.4,-1236 1780.4,-1236 1780.4,-1248 1780.4,-1248 1780.4,-1254 1774.4,-1260 1768.4,-1260"/>
<text text-anchor="middle" x="1636.4" y="-1239.5" font-family="sans" font-size="10.00">maf_cut_extract_numt_region_from_reverse_alignment</text>
</g>
<!-- 22&#45;&gt;29 -->
<g id="edge58" class="edge">
<title>22&#45;&gt;29</title>
<path fill="none" stroke="grey" stroke-width="2" d="M1105.25,-1304.56C1197.3,-1293.89 1358.24,-1275.24 1478.91,-1261.25"/>
<polygon fill="grey" stroke="grey" stroke-width="2" points="1479.03,-1264.76 1488.56,-1260.13 1478.22,-1257.81 1479.03,-1264.76"/>
</g>
<!-- 22&#45;&gt;30 -->
<g id="edge62" class="edge">
<title>22&#45;&gt;30</title>
<path fill="none" stroke="grey" stroke-width="2" d="M1105.07,-1313.41C1285.62,-1313.66 1743.35,-1309.38 1789.4,-1260 1835.35,-1210.72 1747.28,-1153.7 1686.75,-1122.47"/>
<polygon fill="grey" stroke="grey" stroke-width="2" points="1688.64,-1119.51 1678.13,-1118.13 1685.49,-1125.76 1688.64,-1119.51"/>
</g>
<!-- 23&#45;&gt;20 -->
<g id="edge40" class="edge">
<title>23&#45;&gt;20</title>
<path fill="none" stroke="grey" stroke-width="2" d="M567.77,-1151.15C552.12,-1142.6 533.15,-1132.22 516.26,-1122.99"/>
<polygon fill="grey" stroke="grey" stroke-width="2" points="518.08,-1119.99 507.62,-1118.26 514.72,-1126.13 518.08,-1119.99"/>
</g>
<!-- 23&#45;&gt;25 -->
<g id="edge49" class="edge">
<title>23&#45;&gt;25</title>
<path fill="none" stroke="grey" stroke-width="2" d="M633.03,-1151.15C648.67,-1142.6 667.64,-1132.22 684.53,-1122.99"/>
<polygon fill="grey" stroke="grey" stroke-width="2" points="686.07,-1126.13 693.17,-1118.26 682.72,-1119.99 686.07,-1126.13"/>
</g>
<!-- 24&#45;&gt;23 -->
<g id="edge45" class="edge">
<title>24&#45;&gt;23</title>
<path fill="none" stroke="grey" stroke-width="2" d="M817.58,-1223.06C777.99,-1213.57 729.16,-1201.87 687.84,-1191.96"/>
<polygon fill="grey" stroke="grey" stroke-width="2" points="688.76,-1188.58 678.22,-1189.66 687.13,-1195.39 688.76,-1188.58"/>
</g>
<!-- 24&#45;&gt;25 -->
<g id="edge47" class="edge">
<title>24&#45;&gt;25</title>
<path fill="none" stroke="grey" stroke-width="2" d="M871.63,-1223.02C843.04,-1198.26 791.38,-1153.53 758.54,-1125.1"/>
<polygon fill="grey" stroke="grey" stroke-width="2" points="761.14,-1122.72 751.29,-1118.82 756.56,-1128.01 761.14,-1122.72"/>
</g>
<!-- 25&#45;&gt;10 -->
<g id="edge20" class="edge">
<title>25&#45;&gt;10</title>
<path fill="none" stroke="grey" stroke-width="2" d="M720.32,-1079.34C717.16,-1072.43 713.45,-1064.31 709.91,-1056.56"/>
<polygon fill="grey" stroke="grey" stroke-width="2" points="713.18,-1055.29 705.84,-1047.65 706.81,-1058.2 713.18,-1055.29"/>
</g>
<!-- 26&#45;&gt;10 -->
<g id="edge21" class="edge">
<title>26&#45;&gt;10</title>
<path fill="none" stroke="grey" stroke-width="2" d="M1056.45,-1084.81C988.39,-1073.88 887.6,-1057.7 809.96,-1045.23"/>
<polygon fill="grey" stroke="grey" stroke-width="2" points="810.64,-1041.8 800.21,-1043.67 809.53,-1048.71 810.64,-1041.8"/>
</g>
<!-- 27&#45;&gt;26 -->
<g id="edge51" class="edge">
<title>27&#45;&gt;26</title>
<path fill="none" stroke="grey" stroke-width="2" d="M1293.97,-1223.02C1261.58,-1198.16 1202.94,-1153.15 1165.92,-1124.73"/>
<polygon fill="grey" stroke="grey" stroke-width="2" points="1168.1,-1121.99 1158.04,-1118.68 1163.84,-1127.55 1168.1,-1121.99"/>
</g>
<!-- 28 -->
<g id="node29" class="node">
<title>28</title>
<path fill="none" stroke="#567bd8" stroke-width="2" d="M1549.4,-1188C1549.4,-1188 1331.4,-1188 1331.4,-1188 1325.4,-1188 1319.4,-1182 1319.4,-1176 1319.4,-1176 1319.4,-1164 1319.4,-1164 1319.4,-1158 1325.4,-1152 1331.4,-1152 1331.4,-1152 1549.4,-1152 1549.4,-1152 1555.4,-1152 1561.4,-1158 1561.4,-1164 1561.4,-1164 1561.4,-1176 1561.4,-1176 1561.4,-1182 1555.4,-1188 1549.4,-1188"/>
<text text-anchor="middle" x="1440.4" y="-1167.5" font-family="sans" font-size="10.00">convert_cut_regions_reverse_maf_to_blasttab</text>
</g>
<!-- 27&#45;&gt;28 -->
<g id="edge56" class="edge">
<title>27&#45;&gt;28</title>
<path fill="none" stroke="grey" stroke-width="2" d="M1348.75,-1223.15C1363.64,-1214.68 1381.67,-1204.42 1397.78,-1195.25"/>
<polygon fill="grey" stroke="grey" stroke-width="2" points="1399.51,-1198.3 1406.47,-1190.31 1396.04,-1192.21 1399.51,-1198.3"/>
</g>
<!-- 28&#45;&gt;26 -->
<g id="edge53" class="edge">
<title>28&#45;&gt;26</title>
<path fill="none" stroke="grey" stroke-width="2" d="M1361.48,-1151.06C1318.48,-1141.29 1265.14,-1129.17 1220.75,-1119.08"/>
<polygon fill="grey" stroke="grey" stroke-width="2" points="1221.67,-1115.7 1211.14,-1116.9 1220.11,-1122.53 1221.67,-1115.7"/>
</g>
<!-- 28&#45;&gt;30 -->
<g id="edge60" class="edge">
<title>28&#45;&gt;30</title>
<path fill="none" stroke="grey" stroke-width="2" d="M1490.62,-1151.06C1516.09,-1141.97 1547.27,-1130.83 1574.24,-1121.2"/>
<polygon fill="grey" stroke="grey" stroke-width="2" points="1575.22,-1124.57 1583.46,-1117.91 1572.86,-1117.97 1575.22,-1124.57"/>
</g>
<!-- 29&#45;&gt;28 -->
<g id="edge57" class="edge">
<title>29&#45;&gt;28</title>
<path fill="none" stroke="grey" stroke-width="2" d="M1586.18,-1223.06C1560.7,-1213.97 1529.52,-1202.83 1502.55,-1193.2"/>
<polygon fill="grey" stroke="grey" stroke-width="2" points="1503.93,-1189.97 1493.34,-1189.91 1501.58,-1196.57 1503.93,-1189.97"/>
</g>
<!-- 29&#45;&gt;30 -->
<g id="edge61" class="edge">
<title>29&#45;&gt;30</title>
<path fill="none" stroke="grey" stroke-width="2" d="M1636.4,-1223.02C1636.4,-1199.54 1636.4,-1158.11 1636.4,-1129.64"/>
<polygon fill="grey" stroke="grey" stroke-width="2" points="1639.9,-1129.87 1636.4,-1119.87 1632.9,-1129.87 1639.9,-1129.87"/>
</g>
<!-- 30&#45;&gt;10 -->
<g id="edge19" class="edge">
<title>30&#45;&gt;10</title>
<path fill="none" stroke="grey" stroke-width="2" d="M1581.45,-1092.91C1431.52,-1081.74 1013.02,-1050.58 809.88,-1035.45"/>
<polygon fill="grey" stroke="grey" stroke-width="2" points="810.37,-1031.98 800.14,-1034.73 809.85,-1038.96 810.37,-1031.98"/>
</g>
<!-- 31 -->
<g id="node32" class="node">
<title>31</title>
<path fill="none" stroke="#88d856" stroke-width="2" d="M694.4,-1692C694.4,-1692 518.4,-1692 518.4,-1692 512.4,-1692 506.4,-1686 506.4,-1680 506.4,-1680 506.4,-1668 506.4,-1668 506.4,-1662 512.4,-1656 518.4,-1656 518.4,-1656 694.4,-1656 694.4,-1656 700.4,-1656 706.4,-1662 706.4,-1668 706.4,-1668 706.4,-1680 706.4,-1680 706.4,-1686 700.4,-1692 694.4,-1692"/>
<text text-anchor="middle" x="606.4" y="-1671.5" font-family="sans" font-size="10.00">circularize_non_scrofa_mtc_genomes</text>
</g>
<!-- 31&#45;&gt;13 -->
<g id="edge29" class="edge">
<title>31&#45;&gt;13</title>
<path fill="none" stroke="grey" stroke-width="2" d="M564.59,-1655.15C543.85,-1646.3 518.55,-1635.51 496.37,-1626.04"/>
<polygon fill="grey" stroke="grey" stroke-width="2" points="497.77,-1622.83 487.2,-1622.12 495.02,-1629.27 497.77,-1622.83"/>
</g>
<!-- 32 -->
<g id="node33" class="node">
<title>32</title>
<path fill="none" stroke="#56d8a2" stroke-width="2" d="M227.9,-1692C227.9,-1692 42.9,-1692 42.9,-1692 36.9,-1692 30.9,-1686 30.9,-1680 30.9,-1680 30.9,-1668 30.9,-1668 30.9,-1662 36.9,-1656 42.9,-1656 42.9,-1656 227.9,-1656 227.9,-1656 233.9,-1656 239.9,-1662 239.9,-1668 239.9,-1668 239.9,-1680 239.9,-1680 239.9,-1686 233.9,-1692 227.9,-1692"/>
<text text-anchor="middle" x="135.4" y="-1671.5" font-family="sans" font-size="10.00">prepare_non_sus_scrofa_mtc_genomes</text>
</g>
<!-- 32&#45;&gt;4 -->
<g id="edge10" class="edge">
<title>32&#45;&gt;4</title>
<path fill="none" stroke="grey" stroke-width="2" d="M113.36,-1655.36C85.3,-1630.74 40.4,-1583.2 40.4,-1531 40.4,-1531 40.4,-1531 40.4,-449 40.4,-396.52 89.42,-355.73 128.39,-331.59"/>
<polygon fill="grey" stroke="grey" stroke-width="2" points="130.17,-334.6 136.97,-326.48 126.59,-328.59 130.17,-334.6"/>
</g>
<!-- 32&#45;&gt;19 -->
<g id="edge37" class="edge">
<title>32&#45;&gt;19</title>
<path fill="none" stroke="grey" stroke-width="2" d="M169.3,-1655.15C185.64,-1646.56 205.46,-1636.12 223.07,-1626.85"/>
<polygon fill="grey" stroke="grey" stroke-width="2" points="224.65,-1629.98 231.87,-1622.22 221.39,-1623.78 224.65,-1629.98"/>
</g>
<!-- 33 -->
<g id="node34" class="node">
<title>33</title>
<path fill="none" stroke="#d8a456" stroke-width="2" d="M580.9,-684C580.9,-684 483.9,-684 483.9,-684 477.9,-684 471.9,-678 471.9,-672 471.9,-672 471.9,-660 471.9,-660 471.9,-654 477.9,-648 483.9,-648 483.9,-648 580.9,-648 580.9,-648 586.9,-648 592.9,-654 592.9,-660 592.9,-660 592.9,-672 592.9,-672 592.9,-678 586.9,-684 580.9,-684"/>
<text text-anchor="middle" x="532.4" y="-663.5" font-family="sans" font-size="10.00">get_dfs_from_maf_bt</text>
</g>
<!-- 33&#45;&gt;8 -->
<g id="edge15" class="edge">
<title>33&#45;&gt;8</title>
<path fill="none" stroke="grey" stroke-width="2" d="M526.84,-647.34C524.72,-640.59 522.24,-632.69 519.86,-625.11"/>
<polygon fill="grey" stroke="grey" stroke-width="2" points="523.27,-624.28 516.93,-615.79 516.59,-626.38 523.27,-624.28"/>
</g>
<!-- 34 -->
<g id="node35" class="node">
<title>34</title>
<path fill="none" stroke="#d85656" stroke-width="2" d="M505.9,-828C505.9,-828 314.9,-828 314.9,-828 308.9,-828 302.9,-822 302.9,-816 302.9,-816 302.9,-804 302.9,-804 302.9,-798 308.9,-792 314.9,-792 314.9,-792 505.9,-792 505.9,-792 511.9,-792 517.9,-798 517.9,-804 517.9,-804 517.9,-816 517.9,-816 517.9,-822 511.9,-828 505.9,-828"/>
<text text-anchor="middle" x="410.4" y="-807.5" font-family="sans" font-size="10.00">maf_cut_new_numt_coords_ref_to_other</text>
</g>
<!-- 34&#45;&gt;33 -->
<g id="edge63" class="edge">
<title>34&#45;&gt;33</title>
<path fill="none" stroke="grey" stroke-width="2" d="M407.89,-791.16C406.15,-771.79 406.38,-740.85 421.4,-720 431.04,-706.61 444.98,-696.47 459.75,-688.84"/>
<polygon fill="grey" stroke="grey" stroke-width="2" points="460.84,-692.2 468.4,-684.77 457.86,-685.86 460.84,-692.2"/>
</g>
<!-- 36 -->
<g id="node37" class="node">
<title>36</title>
<path fill="none" stroke="#5663d8" stroke-width="2" d="M623.9,-756C623.9,-756 442.9,-756 442.9,-756 436.9,-756 430.9,-750 430.9,-744 430.9,-744 430.9,-732 430.9,-732 430.9,-726 436.9,-720 442.9,-720 442.9,-720 623.9,-720 623.9,-720 629.9,-720 635.9,-726 635.9,-732 635.9,-732 635.9,-744 635.9,-744 635.9,-750 629.9,-756 623.9,-756"/>
<text text-anchor="middle" x="533.4" y="-735.5" font-family="sans" font-size="10.00">convert_new_regions_maf_to_blasttab</text>
</g>
<!-- 34&#45;&gt;36 -->
<g id="edge68" class="edge">
<title>34&#45;&gt;36</title>
<path fill="none" stroke="grey" stroke-width="2" d="M441.75,-791.15C456.64,-782.68 474.67,-772.42 490.78,-763.25"/>
<polygon fill="grey" stroke="grey" stroke-width="2" points="492.51,-766.3 499.47,-758.31 489.04,-760.21 492.51,-766.3"/>
</g>
<!-- 35&#45;&gt;34 -->
<g id="edge66" class="edge">
<title>35&#45;&gt;34</title>
<path fill="none" stroke="grey" stroke-width="2" d="M599.31,-863.06C565.26,-853.68 523.34,-842.13 487.65,-832.29"/>
<polygon fill="grey" stroke="grey" stroke-width="2" points="488.8,-828.98 478.23,-829.69 486.94,-835.72 488.8,-828.98"/>
</g>
<!-- 37 -->
<g id="node38" class="node">
<title>37</title>
<path fill="none" stroke="#c6d856" stroke-width="2" d="M780.9,-828C780.9,-828 547.9,-828 547.9,-828 541.9,-828 535.9,-822 535.9,-816 535.9,-816 535.9,-804 535.9,-804 535.9,-798 541.9,-792 547.9,-792 547.9,-792 780.9,-792 780.9,-792 786.9,-792 792.9,-798 792.9,-804 792.9,-804 792.9,-816 792.9,-816 792.9,-822 786.9,-828 780.9,-828"/>
<text text-anchor="middle" x="664.4" y="-807.5" font-family="sans" font-size="10.00">maf_cut_new_numt_coords_other_to_ref_reverse</text>
</g>
<!-- 35&#45;&gt;37 -->
<g id="edge70" class="edge">
<title>35&#45;&gt;37</title>
<path fill="none" stroke="grey" stroke-width="2" d="M664.4,-863.34C664.4,-856.75 664.4,-849.08 664.4,-841.67"/>
<polygon fill="grey" stroke="grey" stroke-width="2" points="667.9,-841.93 664.4,-831.93 660.9,-841.93 667.9,-841.93"/>
</g>
<!-- 36&#45;&gt;33 -->
<g id="edge65" class="edge">
<title>36&#45;&gt;33</title>
<path fill="none" stroke="grey" stroke-width="2" d="M533.14,-719.34C533.05,-712.75 532.94,-705.08 532.83,-697.67"/>
<polygon fill="grey" stroke="grey" stroke-width="2" points="536.34,-697.88 532.7,-687.93 529.34,-697.98 536.34,-697.88"/>
</g>
<!-- 37&#45;&gt;33 -->
<g id="edge64" class="edge">
<title>37&#45;&gt;33</title>
<path fill="none" stroke="grey" stroke-width="2" d="M664.81,-791.34C664.36,-771.85 660.82,-740.53 644.4,-720 634.11,-707.15 619.98,-697.25 605.2,-689.68"/>
<polygon fill="grey" stroke="grey" stroke-width="2" points="607.12,-686.71 596.58,-685.62 604.14,-693.05 607.12,-686.71"/>
</g>
<!-- 37&#45;&gt;36 -->
<g id="edge69" class="edge">
<title>37&#45;&gt;36</title>
<path fill="none" stroke="grey" stroke-width="2" d="M631,-791.15C614.83,-782.52 595.2,-772.02 577.79,-762.72"/>
<polygon fill="grey" stroke="grey" stroke-width="2" points="579.87,-759.87 569.4,-758.24 576.57,-766.04 579.87,-759.87"/>
</g>
<!-- 38&#45;&gt;2 -->
<g id="edge8" class="edge">
<title>38&#45;&gt;2</title>
<path fill="none" stroke="grey" stroke-width="2" d="M219.75,-215.15C241.96,-206.22 269.09,-195.31 292.79,-185.77"/>
<polygon fill="grey" stroke="grey" stroke-width="2" points="294.04,-189.04 302.01,-182.06 291.43,-182.55 294.04,-189.04"/>
</g>
<!-- 39&#45;&gt;0 -->
<g id="edge2" class="edge">
<title>39&#45;&gt;0</title>
<path fill="none" stroke="grey" stroke-width="2" d="M499.67,-431.16C494.39,-404.34 485.4,-351.98 485.4,-307 485.4,-307 485.4,-307 485.4,-161 485.4,-121.09 470.9,-77.06 459.58,-48.77"/>
<polygon fill="grey" stroke="grey" stroke-width="2" points="462.9,-47.63 455.83,-39.74 456.43,-50.32 462.9,-47.63"/>
</g>
</g>
</svg>
