<?xml version="1.0" encoding="UTF-8" standalone="no"?>
<!DOCTYPE svg PUBLIC "-//W3C//DTD SVG 1.1//EN"
 "http://www.w3.org/Graphics/SVG/1.1/DTD/svg11.dtd">
<!-- Generated by graphviz version 7.0.5 (20221231.0122)
 -->
<!-- Title: snakemake_dag Pages: 1 -->
<svg width="750pt" height="692pt"
 viewBox="0.00 0.00 750.00 692.00" xmlns="http://www.w3.org/2000/svg" xmlns:xlink="http://www.w3.org/1999/xlink">
<g id="graph0" class="graph" transform="scale(1 1) rotate(0) translate(4 688)">
<title>snakemake_dag</title>
<polygon fill="white" stroke="none" points="-4,4 -4,-688 746,-688 746,4 -4,4"/>
<!-- 0 -->
<g id="node1" class="node">
<title>0</title>
<path fill="none" stroke="#d89556" stroke-width="2" d="M514,-36C514,-36 484,-36 484,-36 478,-36 472,-30 472,-24 472,-24 472,-12 472,-12 472,-6 478,0 484,0 484,0 514,0 514,0 520,0 526,-6 526,-12 526,-12 526,-24 526,-24 526,-30 520,-36 514,-36"/>
<text text-anchor="middle" x="499" y="-15.5" font-family="sans" font-size="10.00">all</text>
</g>
<!-- 1 -->
<g id="node2" class="node">
<title>1</title>
<path fill="none" stroke="#567bd8" stroke-width="2" d="M575,-108C575,-108 423,-108 423,-108 417,-108 411,-102 411,-96 411,-96 411,-84 411,-84 411,-78 417,-72 423,-72 423,-72 575,-72 575,-72 581,-72 587,-78 587,-84 587,-84 587,-96 587,-96 587,-102 581,-108 575,-108"/>
<text text-anchor="middle" x="499" y="-87.5" font-family="sans" font-size="10.00">stats_and_plots_numt_discovery</text>
</g>
<!-- 1&#45;&gt;0 -->
<g id="edge1" class="edge">
<title>1&#45;&gt;0</title>
<path fill="none" stroke="grey" stroke-width="2" d="M499,-71.34C499,-64.75 499,-57.08 499,-49.67"/>
<polygon fill="grey" stroke="grey" stroke-width="2" points="502.5,-49.93 499,-39.93 495.5,-49.93 502.5,-49.93"/>
</g>
<!-- 2 -->
<g id="node3" class="node">
<title>2</title>
<path fill="none" stroke="#56d863" stroke-width="2" d="M659,-180C659,-180 339,-180 339,-180 333,-180 327,-174 327,-168 327,-168 327,-156 327,-156 327,-150 333,-144 339,-144 339,-144 659,-144 659,-144 665,-144 671,-150 671,-156 671,-156 671,-168 671,-168 671,-174 665,-180 659,-180"/>
<text text-anchor="middle" x="499" y="-159.5" font-family="sans" font-size="10.00">drop_duplicates_and_define_regions_and_names_assembly_numts</text>
</g>
<!-- 2&#45;&gt;1 -->
<g id="edge2" class="edge">
<title>2&#45;&gt;1</title>
<path fill="none" stroke="grey" stroke-width="2" d="M499,-143.34C499,-136.75 499,-129.08 499,-121.67"/>
<polygon fill="grey" stroke="grey" stroke-width="2" points="502.5,-121.93 499,-111.93 495.5,-121.93 502.5,-121.93"/>
</g>
<!-- 3 -->
<g id="node4" class="node">
<title>3</title>
<path fill="none" stroke="#56d8a2" stroke-width="2" d="M485.5,-252C485.5,-252 252.5,-252 252.5,-252 246.5,-252 240.5,-246 240.5,-240 240.5,-240 240.5,-228 240.5,-228 240.5,-222 246.5,-216 252.5,-216 252.5,-216 485.5,-216 485.5,-216 491.5,-216 497.5,-222 497.5,-228 497.5,-228 497.5,-240 497.5,-240 497.5,-246 491.5,-252 485.5,-252"/>
<text text-anchor="middle" x="369" y="-231.5" font-family="sans" font-size="10.00">replace_in_linear_df_with_alignments_over_edge</text>
</g>
<!-- 3&#45;&gt;2 -->
<g id="edge3" class="edge">
<title>3&#45;&gt;2</title>
<path fill="none" stroke="grey" stroke-width="2" d="M402.14,-215.15C418.03,-206.6 437.3,-196.22 454.45,-186.99"/>
<polygon fill="grey" stroke="grey" stroke-width="2" points="456.11,-190.07 463.25,-182.25 452.79,-183.91 456.11,-190.07"/>
</g>
<!-- 4 -->
<g id="node5" class="node">
<title>4</title>
<path fill="none" stroke="#d6d856" stroke-width="2" d="M350,-396C350,-396 234,-396 234,-396 228,-396 222,-390 222,-384 222,-384 222,-372 222,-372 222,-366 228,-360 234,-360 234,-360 350,-360 350,-360 356,-360 362,-366 362,-372 362,-372 362,-384 362,-384 362,-390 356,-396 350,-396"/>
<text text-anchor="middle" x="292" y="-375.5" font-family="sans" font-size="10.00">align_circular_mtgenome</text>
</g>
<!-- 4&#45;&gt;3 -->
<g id="edge6" class="edge">
<title>4&#45;&gt;3</title>
<path fill="none" stroke="grey" stroke-width="2" d="M287.03,-359.11C282.84,-340.25 279.21,-310.26 291,-288 296.98,-276.71 306.55,-267.39 316.98,-259.87"/>
<polygon fill="grey" stroke="grey" stroke-width="2" points="318.59,-263 325.05,-254.6 314.76,-257.14 318.59,-263"/>
</g>
<!-- 9 -->
<g id="node10" class="node">
<title>9</title>
<path fill="none" stroke="#88d856" stroke-width="2" d="M426,-324C426,-324 312,-324 312,-324 306,-324 300,-318 300,-312 300,-312 300,-300 300,-300 300,-294 306,-288 312,-288 312,-288 426,-288 426,-288 432,-288 438,-294 438,-300 438,-300 438,-312 438,-312 438,-318 432,-324 426,-324"/>
<text text-anchor="middle" x="369" y="-303.5" font-family="sans" font-size="10.00">convert_maf_to_blasttab</text>
</g>
<!-- 4&#45;&gt;9 -->
<g id="edge14" class="edge">
<title>4&#45;&gt;9</title>
<path fill="none" stroke="grey" stroke-width="2" d="M311.43,-359.34C320.03,-351.52 330.32,-342.16 339.81,-333.53"/>
<polygon fill="grey" stroke="grey" stroke-width="2" points="342.02,-336.25 347.07,-326.94 337.31,-331.07 342.02,-336.25"/>
</g>
<!-- 5 -->
<g id="node6" class="node">
<title>5</title>
<path fill="none" stroke="#d86e56" stroke-width="2" d="M180,-468C180,-468 12,-468 12,-468 6,-468 0,-462 0,-456 0,-456 0,-444 0,-444 0,-438 6,-432 12,-432 12,-432 180,-432 180,-432 186,-432 192,-438 192,-444 192,-444 192,-456 192,-456 192,-462 186,-468 180,-468"/>
<text text-anchor="middle" x="96" y="-447.5" font-family="sans" font-size="10.00">circularize_consensus_mtc_genome</text>
</g>
<!-- 5&#45;&gt;4 -->
<g id="edge9" class="edge">
<title>5&#45;&gt;4</title>
<path fill="none" stroke="grey" stroke-width="2" d="M146.22,-431.06C171.7,-421.97 202.87,-410.83 229.85,-401.2"/>
<polygon fill="grey" stroke="grey" stroke-width="2" points="230.82,-404.57 239.06,-397.91 228.46,-397.97 230.82,-404.57"/>
</g>
<!-- 6 -->
<g id="node7" class="node">
<title>6</title>
<path fill="none" stroke="#c6d856" stroke-width="2" d="M354.5,-540C354.5,-540 179.5,-540 179.5,-540 173.5,-540 167.5,-534 167.5,-528 167.5,-528 167.5,-516 167.5,-516 167.5,-510 173.5,-504 179.5,-504 179.5,-504 354.5,-504 354.5,-504 360.5,-504 366.5,-510 366.5,-516 366.5,-516 366.5,-528 366.5,-528 366.5,-534 360.5,-540 354.5,-540"/>
<text text-anchor="middle" x="267" y="-519.5" font-family="sans" font-size="10.00">consensus_sus_scrofa_mtc_genomes</text>
</g>
<!-- 6&#45;&gt;5 -->
<g id="edge10" class="edge">
<title>6&#45;&gt;5</title>
<path fill="none" stroke="grey" stroke-width="2" d="M223.41,-503.15C201.58,-494.22 174.92,-483.31 151.63,-473.77"/>
<polygon fill="grey" stroke="grey" stroke-width="2" points="153.19,-470.63 142.61,-470.08 150.54,-477.11 153.19,-470.63"/>
</g>
<!-- 10 -->
<g id="node11" class="node">
<title>10</title>
<path fill="none" stroke="#9fd856" stroke-width="2" d="M510,-396C510,-396 402,-396 402,-396 396,-396 390,-390 390,-384 390,-384 390,-372 390,-372 390,-366 396,-360 402,-360 402,-360 510,-360 510,-360 516,-360 522,-366 522,-372 522,-372 522,-384 522,-384 522,-390 516,-396 510,-396"/>
<text text-anchor="middle" x="456" y="-375.5" font-family="sans" font-size="10.00">align_linear_mtgenome</text>
</g>
<!-- 6&#45;&gt;10 -->
<g id="edge16" class="edge">
<title>6&#45;&gt;10</title>
<path fill="none" stroke="grey" stroke-width="2" d="M357.91,-503.05C379.95,-495.22 402.02,-484.01 419,-468 435.44,-452.5 444.83,-428.59 450.03,-409.45"/>
<polygon fill="grey" stroke="grey" stroke-width="2" points="453.42,-410.32 452.36,-399.78 446.62,-408.69 453.42,-410.32"/>
</g>
<!-- 7 -->
<g id="node8" class="node">
<title>7</title>
<path fill="none" stroke="#5663d8" stroke-width="2" d="M341,-612C341,-612 193,-612 193,-612 187,-612 181,-606 181,-600 181,-600 181,-588 181,-588 181,-582 187,-576 193,-576 193,-576 341,-576 341,-576 347,-576 353,-582 353,-588 353,-588 353,-600 353,-600 353,-606 347,-612 341,-612"/>
<text text-anchor="middle" x="267" y="-591.5" font-family="sans" font-size="10.00">align_sus_scrofa_mtc_genomes</text>
</g>
<!-- 7&#45;&gt;6 -->
<g id="edge11" class="edge">
<title>7&#45;&gt;6</title>
<path fill="none" stroke="grey" stroke-width="2" d="M267,-575.34C267,-568.75 267,-561.08 267,-553.67"/>
<polygon fill="grey" stroke="grey" stroke-width="2" points="270.5,-553.93 267,-543.93 263.5,-553.93 270.5,-553.93"/>
</g>
<!-- 8 -->
<g id="node9" class="node">
<title>8</title>
<path fill="none" stroke="#d8a456" stroke-width="2" d="M345,-684C345,-684 189,-684 189,-684 183,-684 177,-678 177,-672 177,-672 177,-660 177,-660 177,-654 183,-648 189,-648 189,-648 345,-648 345,-648 351,-648 357,-654 357,-660 357,-660 357,-672 357,-672 357,-678 351,-684 345,-684"/>
<text text-anchor="middle" x="267" y="-663.5" font-family="sans" font-size="10.00">concat_sus_scrofa_mtc_genomes</text>
</g>
<!-- 8&#45;&gt;7 -->
<g id="edge12" class="edge">
<title>8&#45;&gt;7</title>
<path fill="none" stroke="grey" stroke-width="2" d="M267,-647.34C267,-640.75 267,-633.08 267,-625.67"/>
<polygon fill="grey" stroke="grey" stroke-width="2" points="270.5,-625.93 267,-615.93 263.5,-625.93 270.5,-625.93"/>
</g>
<!-- 9&#45;&gt;3 -->
<g id="edge7" class="edge">
<title>9&#45;&gt;3</title>
<path fill="none" stroke="grey" stroke-width="2" d="M369,-287.34C369,-280.75 369,-273.08 369,-265.67"/>
<polygon fill="grey" stroke="grey" stroke-width="2" points="372.5,-265.93 369,-255.93 365.5,-265.93 372.5,-265.93"/>
</g>
<!-- 10&#45;&gt;3 -->
<g id="edge5" class="edge">
<title>10&#45;&gt;3</title>
<path fill="none" stroke="grey" stroke-width="2" d="M458.4,-359.26C460.06,-340.25 460.04,-309.88 447,-288 440.34,-276.82 430.29,-267.47 419.6,-259.9"/>
<polygon fill="grey" stroke="grey" stroke-width="2" points="421.64,-257.05 411.35,-254.55 417.84,-262.92 421.64,-257.05"/>
</g>
<!-- 10&#45;&gt;9 -->
<g id="edge13" class="edge">
<title>10&#45;&gt;9</title>
<path fill="none" stroke="grey" stroke-width="2" d="M434.05,-359.34C424.13,-351.36 412.21,-341.77 401.3,-332.99"/>
<polygon fill="grey" stroke="grey" stroke-width="2" points="403.59,-330.34 393.61,-326.8 399.2,-335.8 403.59,-330.34"/>
</g>
<!-- 11 -->
<g id="node12" class="node">
<title>11</title>
<path fill="none" stroke="#56a2d8" stroke-width="2" d="M730,-252C730,-252 528,-252 528,-252 522,-252 516,-246 516,-240 516,-240 516,-228 516,-228 516,-222 522,-216 528,-216 528,-216 730,-216 730,-216 736,-216 742,-222 742,-228 742,-228 742,-240 742,-240 742,-246 736,-252 730,-252"/>
<text text-anchor="middle" x="629" y="-231.5" font-family="sans" font-size="10.00">get_mtc_scaffolds_from_assembly_reports</text>
</g>
<!-- 11&#45;&gt;2 -->
<g id="edge4" class="edge">
<title>11&#45;&gt;2</title>
<path fill="none" stroke="grey" stroke-width="2" d="M595.86,-215.15C579.97,-206.6 560.7,-196.22 543.55,-186.99"/>
<polygon fill="grey" stroke="grey" stroke-width="2" points="545.21,-183.91 534.75,-182.25 541.89,-190.07 545.21,-183.91"/>
</g>
<!-- 12 -->
<g id="node13" class="node">
<title>12</title>
<path fill="none" stroke="#56d892" stroke-width="2" d="M398,-468C398,-468 222,-468 222,-468 216,-468 210,-462 210,-456 210,-456 210,-444 210,-444 210,-438 216,-432 222,-432 222,-432 398,-432 398,-432 404,-432 410,-438 410,-444 410,-444 410,-456 410,-456 410,-462 404,-468 398,-468"/>
<text text-anchor="middle" x="310" y="-447.5" font-family="sans" font-size="10.00">circularize_non_scrofa_mtc_genomes</text>
</g>
<!-- 12&#45;&gt;4 -->
<g id="edge8" class="edge">
<title>12&#45;&gt;4</title>
<path fill="none" stroke="grey" stroke-width="2" d="M305.46,-431.34C303.74,-424.67 301.74,-416.89 299.81,-409.39"/>
<polygon fill="grey" stroke="grey" stroke-width="2" points="303.24,-408.65 297.36,-399.83 296.46,-410.39 303.24,-408.65"/>
</g>
<!-- 13 -->
<g id="node14" class="node">
<title>13</title>
<path fill="none" stroke="#56d8c9" stroke-width="2" d="M663.5,-468C663.5,-468 478.5,-468 478.5,-468 472.5,-468 466.5,-462 466.5,-456 466.5,-456 466.5,-444 466.5,-444 466.5,-438 472.5,-432 478.5,-432 478.5,-432 663.5,-432 663.5,-432 669.5,-432 675.5,-438 675.5,-444 675.5,-444 675.5,-456 675.5,-456 675.5,-462 669.5,-468 663.5,-468"/>
<text text-anchor="middle" x="571" y="-447.5" font-family="sans" font-size="10.00">prepare_non_sus_scrofa_mtc_genomes</text>
</g>
<!-- 13&#45;&gt;10 -->
<g id="edge15" class="edge">
<title>13&#45;&gt;10</title>
<path fill="none" stroke="grey" stroke-width="2" d="M541.68,-431.15C527.9,-422.76 511.24,-412.62 496.29,-403.52"/>
<polygon fill="grey" stroke="grey" stroke-width="2" points="498.21,-400.6 487.85,-398.39 494.57,-406.58 498.21,-400.6"/>
</g>
</g>
</svg>
